<svg alt="Exterieur" class="exterieur-img" id="exterieurImg" xmlns="http://www.w3.org/2000/svg" viewBox="0 0 400 400">
  <path fill="#000000" d="M 186.960938 240.507812 C 233.296875 240.507812 270.859375 202.945312 270.859375 156.609375 C 270.859375 110.273438 233.296875 72.710938 186.960938 72.710938 C 171.929688 72.710938 157.828125 76.6875 145.625 83.613281 C 162.121094 69.828125 183.355469 61.523438 206.539062 61.523438 C 259.054688 61.523438 301.625 104.09375 301.625 156.609375 C 301.625 209.125 259.054688 251.695312 206.539062 251.695312 C 183.355469 251.695312 162.121094 243.390625 145.625 229.605469 C 157.828125 236.53125 171.929688 240.507812 186.960938 240.507812 " fill-opacity="1" fill-rule="nonzero" />
  <path fill="#000000" d="M 207.605469 261.667969 C 149.582031 261.667969 102.546875 214.632812 102.546875 156.609375 C 102.546875 98.585938 149.582031 51.550781 207.605469 51.550781 C 226.433594 51.550781 244.089844 56.527344 259.371094 65.203125 C 238.710938 47.941406 212.121094 37.542969 183.089844 37.542969 C 117.335938 37.542969 64.027344 90.851562 64.027344 156.609375 C 64.027344 222.367188 117.335938 275.675781 183.089844 275.675781 C 212.121094 275.675781 238.710938 265.277344 259.371094 248.015625 C 244.089844 256.691406 226.433594 261.667969 207.605469 261.667969 " fill-opacity="1" fill-rule="nonzero" />
</svg>