<svg xmlns="http://www.w3.org/2000/svg" xmlns:xlink="http://www.w3.org/1999/xlink" width="500" zoomAndPan="magnify" viewBox="0 0 375 374.999991" height="500" preserveAspectRatio="xMidYMid meet" version="1.0"><defs><clipPath id="2e19f9f074"><path d="M 122.09375 102.367188 L 250 102.367188 L 250 225.367188 L 122.09375 225.367188 Z M 122.09375 102.367188 " clip-rule="nonzero"/></clipPath><clipPath id="4ac6cfb9e4"><path d="M 64.046875 37.5 L 260 37.5 L 260 276 L 64.046875 276 Z M 64.046875 37.5 " clip-rule="nonzero"/></clipPath><clipPath id="63a24d7319"><path d="M 145 61 L 301.796875 61 L 301.796875 252 L 145 252 Z M 145 61 " clip-rule="nonzero"/></clipPath></defs><g clip-path="url(#2e19f9f074)"><path fill="#000000" d="M 247.871094 136.148438 C 242.601562 115.714844 225.121094 102.554688 204.015625 102.542969 C 179.589844 102.523438 155.160156 102.535156 130.730469 102.535156 L 140.304688 119.398438 C 161.554688 119.359375 182.792969 119.371094 204.042969 119.386719 C 211.050781 119.386719 217.367188 121.445312 222.6875 126.117188 C 230.980469 133.378906 233.496094 142.800781 232.394531 153.378906 C 231.136719 165.625 223.101562 175.910156 212.132812 178.539062 C 207.484375 179.664062 202.480469 179.222656 197.664062 179.703125 C 194.933594 179.988281 193.546875 178.851562 192.257812 176.578125 C 183.378906 160.953125 174.367188 145.398438 165.394531 129.835938 C 163.757812 126.988281 161.972656 126.960938 160.355469 129.753906 C 157.972656 133.875 155.59375 138 153.210938 142.125 C 143.148438 159.566406 133.082031 176.996094 123.035156 194.449219 C 122.726562 194.984375 122.519531 195.570312 122.097656 196.515625 L 124.828125 196.515625 C 143.714844 196.515625 162.605469 196.558594 181.492188 196.453125 C 182.867188 196.441406 183.820312 196.734375 184.597656 197.40625 C 185.089844 197.816406 185.5 198.371094 185.910156 199.09375 C 190.84375 207.816406 195.886719 216.472656 200.851562 225.179688 L 220.390625 225.179688 C 218.0625 221.128906 215.828125 217.277344 213.609375 213.425781 C 210.453125 207.957031 207.3125 202.480469 204.199219 197.042969 C 204.574219 196.75 204.691406 196.582031 204.828125 196.574219 C 205.390625 196.519531 205.972656 196.5 206.550781 196.480469 C 215.1875 196.121094 223.011719 193.414062 230.117188 188.523438 C 247.660156 176.488281 252.589844 154.488281 247.871094 136.148438 Z M 151.171875 179.46875 C 155.078125 172.6875 158.84375 166.148438 162.832031 159.226562 C 165.078125 163.128906 167.25 166.90625 169.433594 170.707031 C 171.101562 173.59375 172.769531 176.496094 174.480469 179.46875 Z M 151.171875 179.46875 " fill-opacity="1" fill-rule="nonzero"/></g><g clip-path="url(#4ac6cfb9e4)"><path fill="#000000" d="M 207.605469 261.667969 C 149.582031 261.667969 102.546875 214.632812 102.546875 156.609375 C 102.546875 98.585938 149.582031 51.550781 207.605469 51.550781 C 226.433594 51.550781 244.089844 56.527344 259.371094 65.203125 C 238.710938 47.941406 212.121094 37.542969 183.089844 37.542969 C 117.335938 37.542969 64.027344 90.851562 64.027344 156.609375 C 64.027344 222.367188 117.335938 275.675781 183.089844 275.675781 C 212.121094 275.675781 238.710938 265.277344 259.371094 248.015625 C 244.089844 256.691406 226.433594 261.667969 207.605469 261.667969 " fill-opacity="1" fill-rule="nonzero"/></g><g clip-path="url(#63a24d7319)"><path fill="#000000" d="M 186.960938 240.507812 C 233.296875 240.507812 270.859375 202.945312 270.859375 156.609375 C 270.859375 110.273438 233.296875 72.710938 186.960938 72.710938 C 171.929688 72.710938 157.828125 76.6875 145.625 83.613281 C 162.121094 69.828125 183.355469 61.523438 206.539062 61.523438 C 259.054688 61.523438 301.625 104.09375 301.625 156.609375 C 301.625 209.125 259.054688 251.695312 206.539062 251.695312 C 183.355469 251.695312 162.121094 243.390625 145.625 229.605469 C 157.828125 236.53125 171.929688 240.507812 186.960938 240.507812 " fill-opacity="1" fill-rule="nonzero"/></g></svg>