<svg xmlns="http://www.w3.org/2000/svg" xmlns:xlink="http://www.w3.org/1999/xlink" width="500" zoomAndPan="magnify" viewBox="0 0 375 374.999991" height="500" preserveAspectRatio="xMidYMid meet" version="1.0"><defs><g/><clipPath id="746147e7e3"><path d="M 55.847656 111.015625 L 199.390625 111.015625 L 199.390625 293 L 55.847656 293 Z M 55.847656 111.015625 " clip-rule="nonzero"/></clipPath><clipPath id="105a47489a"><path d="M 73.097656 111.015625 L 182.140625 111.015625 C 191.667969 111.015625 199.390625 118.738281 199.390625 128.265625 L 199.390625 275.554688 C 199.390625 285.082031 191.667969 292.804688 182.140625 292.804688 L 73.097656 292.804688 C 63.570312 292.804688 55.847656 285.082031 55.847656 275.554688 L 55.847656 128.265625 C 55.847656 118.738281 63.570312 111.015625 73.097656 111.015625 Z M 73.097656 111.015625 " clip-rule="nonzero"/></clipPath><clipPath id="c355e977f5"><path d="M 41 251.296875 L 333.824219 251.296875 L 333.824219 375 L 41 375 Z M 41 251.296875 " clip-rule="nonzero"/></clipPath><clipPath id="bb0f6f6e10"><path d="M 58.625 251.828125 L 316.375 251.828125 C 320.949219 251.828125 325.335938 253.644531 328.574219 256.878906 C 331.808594 260.117188 333.625 264.503906 333.625 269.078125 L 333.625 370.453125 C 333.625 375.027344 331.808594 379.414062 328.574219 382.652344 C 325.335938 385.886719 320.949219 387.703125 316.375 387.703125 L 58.625 387.703125 C 54.050781 387.703125 49.664062 385.886719 46.425781 382.652344 C 43.191406 379.414062 41.375 375.027344 41.375 370.453125 L 41.375 269.078125 C 41.375 264.503906 43.191406 260.117188 46.425781 256.878906 C 49.664062 253.644531 54.050781 251.828125 58.625 251.828125 Z M 58.625 251.828125 " clip-rule="nonzero"/></clipPath><clipPath id="db2f8eb0f8"><path d="M 92.824219 181.125 L 265.148438 181.125 L 265.148438 201.910156 L 92.824219 201.910156 Z M 92.824219 181.125 " clip-rule="nonzero"/></clipPath><clipPath id="45a5bdd4d0"><path d="M 53.125 55.265625 L 305.125 55.265625 L 305.125 307.265625 L 53.125 307.265625 Z M 53.125 55.265625 " clip-rule="nonzero"/></clipPath></defs><g fill="#000000" fill-opacity="1"><g transform="translate(128.244087, 249.893443)"><g><path d="M 23.78125 -146.671875 C 32.4375 -150.265625 40.765625 -152.0625 48.765625 -152.0625 C 55.421875 -152.0625 62.28125 -149.597656 69.34375 -144.671875 C 73.207031 -142.003906 77.535156 -136.8125 82.328125 -129.09375 C 85.523438 -123.757812 89.585938 -114.097656 94.515625 -100.109375 L 118.90625 -30.96875 C 124.5 -15.519531 130.191406 -3.234375 135.984375 5.890625 C 141.773438 15.015625 147.066406 21.875 151.859375 26.46875 C 156.660156 31.070312 161.660156 34.304688 166.859375 36.171875 C 172.054688 38.035156 176.351562 38.96875 179.75 38.96875 C 183.144531 38.96875 186.175781 38.703125 188.84375 38.171875 L 189.046875 40.171875 C 182.648438 42.296875 176.382812 43.359375 170.25 43.359375 C 164.125 43.359375 158 41.789062 151.875 38.65625 C 145.75 35.53125 140.019531 31.171875 134.6875 25.578125 C 123.226562 13.984375 113.503906 -3.664062 105.515625 -27.375 L 97.71875 -50.15625 L 42.96875 -50.15625 L 29.171875 -14.59375 C 28.503906 -12.988281 28.171875 -11.382812 28.171875 -9.78125 C 28.171875 -8.1875 28.867188 -6.488281 30.265625 -4.6875 C 31.671875 -2.894531 33.835938 -2 36.765625 -2 L 38.375 -2 L 38.375 0 L -1.796875 0 L -1.796875 -2 L 0 -2 C 3.195312 -2 6.328125 -2.960938 9.390625 -4.890625 C 12.453125 -6.828125 14.984375 -9.726562 16.984375 -13.59375 L 66.546875 -132.28125 C 59.347656 -142.539062 50.421875 -147.671875 39.765625 -147.671875 C 34.972656 -147.671875 29.84375 -146.671875 24.375 -144.671875 Z M 45.171875 -56.15625 L 95.71875 -56.15625 L 79.9375 -102.71875 C 76.875 -111.632812 74.078125 -118.625 71.546875 -123.6875 Z M 45.171875 -56.15625 "/></g></g></g><g clip-path="url(#746147e7e3)"><g clip-path="url(#105a47489a)"><path fill="#ffffff" d="M 55.847656 111.015625 L 199.390625 111.015625 L 199.390625 292.6875 L 55.847656 292.6875 Z M 55.847656 111.015625 " fill-opacity="1" fill-rule="nonzero"/></g></g><g fill="#000000" fill-opacity="1"><g transform="translate(90.387942, 265.362229)"><g><path d="M 220.53125 39.546875 C 214.019531 41.253906 208.242188 42.109375 203.203125 42.109375 C 198.160156 42.109375 193.695312 41.796875 189.8125 41.171875 C 185.9375 40.554688 181.789062 39.351562 177.375 37.5625 C 172.957031 35.78125 168.804688 33.726562 164.921875 31.40625 C 161.046875 29.082031 157.171875 26.210938 153.296875 22.796875 C 146.160156 17.054688 139.6875 10.851562 133.875 4.1875 C 128.0625 -2.476562 116.859375 -15 100.265625 -33.375 C 83.671875 -51.757812 72.660156 -63.972656 67.234375 -70.015625 C 61.804688 -76.066406 57.617188 -79.25 54.671875 -79.5625 L 54.671875 -81.890625 C 63.660156 -81.890625 69.664062 -82.082031 72.6875 -82.46875 C 75.71875 -82.851562 78.9375 -83.550781 82.34375 -84.5625 C 85.757812 -85.570312 88.628906 -86.925781 90.953125 -88.625 C 100.109375 -94.519531 104.6875 -104.289062 104.6875 -117.9375 C 104.6875 -129.257812 102.164062 -138.332031 97.125 -145.15625 C 92.082031 -151.976562 84.984375 -155.46875 75.828125 -155.625 L 46.984375 -155.625 L 46.984375 -16.984375 C 46.984375 -13.109375 48.414062 -9.695312 51.28125 -6.75 C 54.15625 -3.800781 57.6875 -2.328125 61.875 -2.328125 L 64.671875 -2.328125 L 64.90625 0 L 13.953125 0 L 13.953125 -2.328125 L 16.984375 -2.328125 C 20.859375 -2.328125 24.269531 -3.722656 27.21875 -6.515625 C 30.164062 -9.304688 31.71875 -12.71875 31.875 -16.75 L 31.875 -145.859375 C 31.71875 -149.890625 30.203125 -153.335938 27.328125 -156.203125 C 24.460938 -159.078125 21.015625 -160.515625 16.984375 -160.515625 L 13.953125 -160.515625 L 13.953125 -162.84375 L 76.765625 -162.84375 C 90.410156 -162.84375 101.378906 -159.003906 109.671875 -151.328125 C 117.972656 -143.648438 122.125 -133.488281 122.125 -120.84375 C 122.125 -108.207031 118.320312 -97.351562 110.71875 -88.28125 C 103.125 -79.207031 93.820312 -74.671875 82.8125 -74.671875 C 82.8125 -74.671875 82.734375 -74.671875 82.578125 -74.671875 C 87.847656 -69.085938 93.820312 -62.570312 100.5 -55.125 C 127.320312 -25.507812 144.53125 -6.90625 152.125 0.6875 C 159.726562 8.289062 166.4375 14.535156 172.25 19.421875 C 178.070312 24.304688 183.234375 27.910156 187.734375 30.234375 C 196.878906 35.203125 205.953125 37.6875 214.953125 37.6875 C 216.804688 37.6875 218.664062 37.53125 220.53125 37.21875 Z M 220.53125 39.546875 "/></g></g></g><g clip-path="url(#c355e977f5)"><g clip-path="url(#bb0f6f6e10)"><path fill="#ffffff" d="M 41.375 251.828125 L 333.824219 251.828125 L 333.824219 387.703125 L 41.375 387.703125 Z M 41.375 251.828125 " fill-opacity="1" fill-rule="nonzero"/></g></g><g clip-path="url(#db2f8eb0f8)"><path fill="#ffffff" d="M 92.824219 181.125 L 265.113281 181.125 L 265.113281 201.910156 L 92.824219 201.910156 Z M 92.824219 181.125 " fill-opacity="1" fill-rule="nonzero"/></g><g clip-path="url(#45a5bdd4d0)"><path fill="#231f20" d="M 179.125 55.265625 C 109.519531 55.265625 53.125 111.710938 53.125 181.265625 C 53.125 250.820312 109.519531 307.265625 179.125 307.265625 C 248.730469 307.265625 305.125 250.820312 305.125 181.265625 C 305.125 111.710938 248.730469 55.265625 179.125 55.265625 Z M 179.125 299.289062 C 113.941406 299.289062 61.101562 246.449219 61.101562 181.265625 C 61.101562 116.082031 113.941406 63.242188 179.125 63.242188 C 244.3125 63.242188 297.148438 116.082031 297.148438 181.265625 C 297.148438 246.449219 244.3125 299.289062 179.125 299.289062 Z M 179.125 299.289062 " fill-opacity="1" fill-rule="nonzero"/></g><path fill="#000000" d="M 103.5625 182.179688 L 254.40625 182.179688 C 255.644531 182.179688 256.832031 182.671875 257.707031 183.546875 C 258.582031 184.425781 259.074219 185.613281 259.074219 186.851562 L 259.074219 196.1875 C 259.074219 197.425781 258.582031 198.613281 257.707031 199.488281 C 256.832031 200.363281 255.644531 200.855469 254.40625 200.855469 L 103.5625 200.855469 C 100.980469 200.855469 98.890625 198.765625 98.890625 196.1875 L 98.890625 186.851562 C 98.890625 184.269531 100.980469 182.179688 103.5625 182.179688 Z M 103.5625 182.179688 " fill-opacity="1" fill-rule="nonzero"/><g fill="#ffffff" fill-opacity="1"><g transform="translate(106.727724, 195.018816)"><g><path d="M 7.40625 -1.453125 L 7.765625 -0.265625 C 7.609375 -0.148438 7.414062 -0.0625 7.1875 0 C 6.957031 0.0703125 6.71875 0.109375 6.46875 0.109375 C 5.601562 0.109375 4.921875 -0.273438 4.421875 -1.046875 L 3.21875 -2.90625 C 3.09375 -3.09375 2.960938 -3.222656 2.828125 -3.296875 C 2.691406 -3.378906 2.546875 -3.421875 2.390625 -3.421875 L 2.34375 -3.421875 L 2.34375 0 L 0.859375 0 L 0.859375 -8.296875 L 3.4375 -8.296875 C 4.488281 -8.296875 5.285156 -8.078125 5.828125 -7.640625 C 6.367188 -7.203125 6.640625 -6.601562 6.640625 -5.84375 C 6.640625 -5.382812 6.535156 -4.988281 6.328125 -4.65625 C 6.128906 -4.320312 5.851562 -4.054688 5.5 -3.859375 C 5.15625 -3.671875 4.757812 -3.550781 4.3125 -3.5 C 4.539062 -3.375 4.753906 -3.160156 4.953125 -2.859375 L 5.609375 -1.890625 C 5.773438 -1.640625 5.9375 -1.46875 6.09375 -1.375 C 6.25 -1.28125 6.441406 -1.234375 6.671875 -1.234375 C 6.941406 -1.234375 7.1875 -1.304688 7.40625 -1.453125 Z M 3.328125 -7.0625 L 2.34375 -7.0625 L 2.34375 -4.609375 L 3.265625 -4.609375 C 3.898438 -4.609375 4.367188 -4.707031 4.671875 -4.90625 C 4.972656 -5.101562 5.125 -5.414062 5.125 -5.84375 C 5.125 -6.65625 4.523438 -7.0625 3.328125 -7.0625 Z M 3.328125 -7.0625 "/></g></g></g><g fill="#ffffff" fill-opacity="1"><g transform="translate(120.371054, 195.018816)"><g><path d="M 4.546875 0.109375 C 3.703125 0.109375 2.976562 -0.0507812 2.375 -0.375 C 1.78125 -0.695312 1.320312 -1.164062 1 -1.78125 C 0.6875 -2.394531 0.53125 -3.132812 0.53125 -4 C 0.53125 -4.863281 0.695312 -5.628906 1.03125 -6.296875 C 1.375 -6.960938 1.859375 -7.484375 2.484375 -7.859375 C 3.117188 -8.234375 3.863281 -8.421875 4.71875 -8.421875 C 5.476562 -8.421875 6.144531 -8.25 6.71875 -7.90625 C 7.300781 -7.5625 7.753906 -7.082031 8.078125 -6.46875 C 8.398438 -5.851562 8.5625 -5.132812 8.5625 -4.3125 C 8.5625 -3.414062 8.382812 -2.640625 8.03125 -1.984375 C 7.6875 -1.328125 7.210938 -0.8125 6.609375 -0.4375 C 6.003906 -0.0703125 5.316406 0.109375 4.546875 0.109375 Z M 4.5 -1.265625 C 4.988281 -1.265625 5.421875 -1.382812 5.796875 -1.625 C 6.179688 -1.863281 6.476562 -2.207031 6.6875 -2.65625 C 6.90625 -3.113281 7.015625 -3.664062 7.015625 -4.3125 C 7.015625 -5.144531 6.800781 -5.8125 6.375 -6.3125 C 5.957031 -6.8125 5.394531 -7.0625 4.6875 -7.0625 C 4.175781 -7.0625 3.722656 -6.929688 3.328125 -6.671875 C 2.941406 -6.410156 2.632812 -6.054688 2.40625 -5.609375 C 2.175781 -5.160156 2.0625 -4.628906 2.0625 -4.015625 C 2.0625 -3.140625 2.273438 -2.460938 2.703125 -1.984375 C 3.140625 -1.503906 3.738281 -1.265625 4.5 -1.265625 Z M 4.5 -1.265625 "/></g></g></g><g fill="#ffffff" fill-opacity="1"><g transform="translate(135.765824, 195.018816)"><g><path d="M -0.109375 0 L 3.421875 -8.296875 L 4.703125 -8.296875 L 8.109375 0 L 6.5625 0 L 5.828125 -1.890625 L 2.203125 -1.890625 L 1.421875 0 Z M 2.71875 -3.171875 L 5.328125 -3.171875 L 4.046875 -6.421875 Z M 2.71875 -3.171875 "/></g></g></g><g fill="#ffffff" fill-opacity="1"><g transform="translate(150.121398, 195.018816)"><g><path d="M 0.859375 0 L 0.859375 -8.296875 L 3.3125 -8.296875 C 4.925781 -8.296875 6.144531 -7.945312 6.96875 -7.25 C 7.800781 -6.5625 8.21875 -5.539062 8.21875 -4.1875 C 8.21875 -3.34375 8.035156 -2.609375 7.671875 -1.984375 C 7.304688 -1.359375 6.785156 -0.867188 6.109375 -0.515625 C 5.441406 -0.171875 4.65625 0 3.75 0 Z M 2.375 -1.34375 L 3.6875 -1.34375 C 4.664062 -1.34375 5.40625 -1.578125 5.90625 -2.046875 C 6.414062 -2.523438 6.671875 -3.21875 6.671875 -4.125 C 6.671875 -5.070312 6.410156 -5.78125 5.890625 -6.25 C 5.378906 -6.71875 4.585938 -6.953125 3.515625 -6.953125 L 2.375 -6.953125 Z M 2.375 -1.34375 "/></g></g></g><g fill="#ffffff" fill-opacity="1"><g transform="translate(165.177551, 195.018816)"><g><path d="M 0.703125 -2.34375 L 0.703125 -3.640625 L 4.203125 -3.640625 L 4.203125 -2.34375 Z M 0.703125 -2.34375 "/></g></g></g><g fill="#ffffff" fill-opacity="1"><g transform="translate(176.392218, 195.018816)"><g><path d="M -0.109375 0 L 3.421875 -8.296875 L 4.703125 -8.296875 L 8.109375 0 L 6.5625 0 L 5.828125 -1.890625 L 2.203125 -1.890625 L 1.421875 0 Z M 2.71875 -3.171875 L 5.328125 -3.171875 L 4.046875 -6.421875 Z M 2.71875 -3.171875 "/></g></g></g><g fill="#ffffff" fill-opacity="1"><g transform="translate(190.747795, 195.018816)"><g><path d="M 0.859375 0 L 0.859375 -8.296875 L 3.3125 -8.296875 C 4.925781 -8.296875 6.144531 -7.945312 6.96875 -7.25 C 7.800781 -6.5625 8.21875 -5.539062 8.21875 -4.1875 C 8.21875 -3.34375 8.035156 -2.609375 7.671875 -1.984375 C 7.304688 -1.359375 6.785156 -0.867188 6.109375 -0.515625 C 5.441406 -0.171875 4.65625 0 3.75 0 Z M 2.375 -1.34375 L 3.6875 -1.34375 C 4.664062 -1.34375 5.40625 -1.578125 5.90625 -2.046875 C 6.414062 -2.523438 6.671875 -3.21875 6.671875 -4.125 C 6.671875 -5.070312 6.410156 -5.78125 5.890625 -6.25 C 5.378906 -6.71875 4.585938 -6.953125 3.515625 -6.953125 L 2.375 -6.953125 Z M 2.375 -1.34375 "/></g></g></g><g fill="#ffffff" fill-opacity="1"><g transform="translate(205.803948, 195.018816)"><g><path d="M 0.859375 0 L 0.859375 -8.296875 L 3.3125 -8.296875 C 4.925781 -8.296875 6.144531 -7.945312 6.96875 -7.25 C 7.800781 -6.5625 8.21875 -5.539062 8.21875 -4.1875 C 8.21875 -3.34375 8.035156 -2.609375 7.671875 -1.984375 C 7.304688 -1.359375 6.785156 -0.867188 6.109375 -0.515625 C 5.441406 -0.171875 4.65625 0 3.75 0 Z M 2.375 -1.34375 L 3.6875 -1.34375 C 4.664062 -1.34375 5.40625 -1.578125 5.90625 -2.046875 C 6.414062 -2.523438 6.671875 -3.21875 6.671875 -4.125 C 6.671875 -5.070312 6.410156 -5.78125 5.890625 -6.25 C 5.378906 -6.71875 4.585938 -6.953125 3.515625 -6.953125 L 2.375 -6.953125 Z M 2.375 -1.34375 "/></g></g></g><g fill="#ffffff" fill-opacity="1"><g transform="translate(220.860095, 195.018816)"><g><path d="M 0.859375 0 L 0.859375 -8.296875 L 2.375 -8.296875 L 2.375 0 Z M 0.859375 0 "/></g></g></g><g fill="#ffffff" fill-opacity="1"><g transform="translate(230.405049, 195.018816)"><g><path d="M 7.890625 -1.609375 C 7.554688 -1.054688 7.101562 -0.628906 6.53125 -0.328125 C 5.957031 -0.0351562 5.3125 0.109375 4.59375 0.109375 C 3.738281 0.109375 3.007812 -0.0507812 2.40625 -0.375 C 1.800781 -0.707031 1.335938 -1.179688 1.015625 -1.796875 C 0.691406 -2.410156 0.53125 -3.140625 0.53125 -3.984375 C 0.53125 -4.867188 0.707031 -5.640625 1.0625 -6.296875 C 1.414062 -6.960938 1.910156 -7.484375 2.546875 -7.859375 C 3.191406 -8.234375 3.9375 -8.421875 4.78125 -8.421875 C 5.5 -8.421875 6.113281 -8.28125 6.625 -8 C 7.132812 -7.726562 7.5625 -7.316406 7.90625 -6.765625 L 6.734375 -5.921875 C 6.523438 -6.316406 6.25 -6.601562 5.90625 -6.78125 C 5.5625 -6.957031 5.179688 -7.046875 4.765625 -7.046875 C 4.234375 -7.046875 3.765625 -6.914062 3.359375 -6.65625 C 2.960938 -6.40625 2.644531 -6.050781 2.40625 -5.59375 C 2.175781 -5.132812 2.0625 -4.609375 2.0625 -4.015625 C 2.0625 -3.148438 2.285156 -2.472656 2.734375 -1.984375 C 3.179688 -1.503906 3.804688 -1.265625 4.609375 -1.265625 C 5.054688 -1.265625 5.46875 -1.363281 5.84375 -1.5625 C 6.21875 -1.769531 6.519531 -2.078125 6.75 -2.484375 Z M 7.890625 -1.609375 "/></g></g></g><g fill="#ffffff" fill-opacity="1"><g transform="translate(244.5271, 195.018816)"><g><path d="M 6.875 -8.296875 L 6.6875 -6.96875 L 4.109375 -6.96875 L 4.109375 0 L 2.59375 0 L 2.59375 -6.96875 L -0.0625 -6.96875 L -0.0625 -8.296875 Z M 6.875 -8.296875 "/></g></g></g></svg>