 <svg alt="RA" class="ra-img" id="raImg" xmlns="http://www.w3.org/2000/svg" viewBox="0 0 400 400">
  <path fill="#000000" d="M 247.871094 136.148438 C 242.601562 115.714844 225.121094 102.554688 204.015625 102.542969 C 179.589844 102.523438 155.160156 102.535156 130.730469 102.535156 L 140.304688 119.398438 C 161.554688 119.359375 182.792969 119.371094 204.042969 119.386719 C 211.050781 119.386719 217.367188 121.445312 222.6875 126.117188 C 230.980469 133.378906 233.496094 142.800781 232.394531 153.378906 C 231.136719 165.625 223.101562 175.910156 212.132812 178.539062 C 207.484375 179.664062 202.480469 179.222656 197.664062 179.703125 C 194.933594 179.988281 193.546875 178.851562 192.257812 176.578125 C 183.378906 160.953125 174.367188 145.398438 165.394531 129.835938 C 163.757812 126.988281 161.972656 126.960938 160.355469 129.753906 C 157.972656 133.875 155.59375 138 153.210938 142.125 C 143.148438 159.566406 133.082031 176.996094 123.035156 194.449219 C 122.726562 194.984375 122.519531 195.570312 122.097656 196.515625 L 124.828125 196.515625 C 143.714844 196.515625 162.605469 196.558594 181.492188 196.453125 C 182.867188 196.441406 183.820312 196.734375 184.597656 197.40625 C 185.089844 197.816406 185.5 198.371094 185.910156 199.09375 C 190.84375 207.816406 195.886719 216.472656 200.851562 225.179688 L 220.390625 225.179688 C 218.0625 221.128906 215.828125 217.277344 213.609375 213.425781 C 210.453125 207.957031 207.3125 202.480469 204.199219 197.042969 C 204.574219 196.75 204.691406 196.582031 204.828125 196.574219 C 205.390625 196.519531 205.972656 196.5 206.550781 196.480469 C 215.1875 196.121094 223.011719 193.414062 230.117188 188.523438 C 247.660156 176.488281 252.589844 154.488281 247.871094 136.148438 Z M 151.171875 179.46875 C 155.078125 172.6875 158.84375 166.148438 162.832031 159.226562 C 165.078125 163.128906 167.25 166.90625 169.433594 170.707031 C 171.101562 173.59375 172.769531 176.496094 174.480469 179.46875 Z M 151.171875 179.46875 " fill-opacity="1" fill-rule="nonzero"/>
</svg> 