<svg xmlns="http://www.w3.org/2000/svg" xmlns:xlink="http://www.w3.org/1999/xlink" width="500"
            zoomAndPan="magnify" viewBox="0 0 375 374.999991" height="500" preserveAspectRatio="xMidYMid meet"
            version="1.0">
            <defs>
                <g />
                <clipPath id="f760ca96c6">
                    <path
                        d="M 55.847656 111.015625 L 199.390625 111.015625 L 199.390625 293 L 55.847656 293 Z M 55.847656 111.015625 "
                        clip-rule="nonzero" />
                </clipPath>
                <clipPath id="5519589c8b">
                    <path
                        d="M 73.097656 111.015625 L 182.140625 111.015625 C 191.667969 111.015625 199.390625 118.738281 199.390625 128.265625 L 199.390625 275.554688 C 199.390625 285.082031 191.667969 292.804688 182.140625 292.804688 L 73.097656 292.804688 C 63.570312 292.804688 55.847656 285.082031 55.847656 275.554688 L 55.847656 128.265625 C 55.847656 118.738281 63.570312 111.015625 73.097656 111.015625 Z M 73.097656 111.015625 "
                        clip-rule="nonzero" />
                </clipPath>
                <clipPath id="9d9e9adced">
                    <path d="M 41 251.296875 L 333.824219 251.296875 L 333.824219 375 L 41 375 Z M 41 251.296875 "
                        clip-rule="nonzero" />
                </clipPath>
                <clipPath id="063461e636">
                    <path
                        d="M 58.625 251.828125 L 316.375 251.828125 C 320.949219 251.828125 325.335938 253.644531 328.574219 256.878906 C 331.808594 260.117188 333.625 264.503906 333.625 269.078125 L 333.625 370.453125 C 333.625 375.027344 331.808594 379.414062 328.574219 382.652344 C 325.335938 385.886719 320.949219 387.703125 316.375 387.703125 L 58.625 387.703125 C 54.050781 387.703125 49.664062 385.886719 46.425781 382.652344 C 43.191406 379.414062 41.375 375.027344 41.375 370.453125 L 41.375 269.078125 C 41.375 264.503906 43.191406 260.117188 46.425781 256.878906 C 49.664062 253.644531 54.050781 251.828125 58.625 251.828125 Z M 58.625 251.828125 "
                        clip-rule="nonzero" />
                </clipPath>
                <clipPath id="b5e603b942">
                    <path
                        d="M 92.824219 181.125 L 265.148438 181.125 L 265.148438 201.910156 L 92.824219 201.910156 Z M 92.824219 181.125 "
                        clip-rule="nonzero" />
                </clipPath>
            </defs>
            
                     
            <path fill="#000000"
                d="M 91.871094 171.457031 L 242.71875 171.457031 C 243.953125 171.457031 245.140625 171.949219 246.019531 172.824219 C 246.894531 173.699219 247.386719 174.886719 247.386719 176.125 L 247.386719 185.460938 C 247.386719 186.699219 246.894531 187.886719 246.019531 188.761719 C 245.140625 189.640625 243.953125 190.128906 242.71875 190.128906 L 91.871094 190.128906 C 90.632812 190.128906 89.445312 189.640625 88.570312 188.761719 C 87.695312 187.886719 87.203125 186.699219 87.203125 185.460938 L 87.203125 176.125 C 87.203125 174.886719 87.695312 173.699219 88.570312 172.824219 C 89.445312 171.949219 90.632812 171.457031 91.871094 171.457031 Z M 91.871094 171.457031 "
                fill-opacity="1" fill-rule="nonzero" />
            <g fill="#ffffff" fill-opacity="1">
                <g transform="translate(95.038438, 184.29345)">
                    <g>
                        <path
                            d="M 7.40625 -1.453125 L 7.765625 -0.265625 C 7.609375 -0.148438 7.414062 -0.0625 7.1875 0 C 6.957031 0.0703125 6.71875 0.109375 6.46875 0.109375 C 5.601562 0.109375 4.921875 -0.273438 4.421875 -1.046875 L 3.21875 -2.90625 C 3.09375 -3.09375 2.960938 -3.222656 2.828125 -3.296875 C 2.691406 -3.378906 2.546875 -3.421875 2.390625 -3.421875 L 2.34375 -3.421875 L 2.34375 0 L 0.859375 0 L 0.859375 -8.296875 L 3.4375 -8.296875 C 4.488281 -8.296875 5.285156 -8.078125 5.828125 -7.640625 C 6.367188 -7.203125 6.640625 -6.601562 6.640625 -5.84375 C 6.640625 -5.382812 6.535156 -4.988281 6.328125 -4.65625 C 6.128906 -4.320312 5.851562 -4.054688 5.5 -3.859375 C 5.15625 -3.671875 4.757812 -3.550781 4.3125 -3.5 C 4.539062 -3.375 4.753906 -3.160156 4.953125 -2.859375 L 5.609375 -1.890625 C 5.773438 -1.640625 5.9375 -1.46875 6.09375 -1.375 C 6.25 -1.28125 6.441406 -1.234375 6.671875 -1.234375 C 6.941406 -1.234375 7.1875 -1.304688 7.40625 -1.453125 Z M 3.328125 -7.0625 L 2.34375 -7.0625 L 2.34375 -4.609375 L 3.265625 -4.609375 C 3.898438 -4.609375 4.367188 -4.707031 4.671875 -4.90625 C 4.972656 -5.101562 5.125 -5.414062 5.125 -5.84375 C 5.125 -6.65625 4.523438 -7.0625 3.328125 -7.0625 Z M 3.328125 -7.0625 " />
                    </g>
                </g>
            </g>
            <g fill="#ffffff" fill-opacity="1">
                <g transform="translate(108.681767, 184.29345)">
                    <g>
                        <path
                            d="M 4.546875 0.109375 C 3.703125 0.109375 2.976562 -0.0507812 2.375 -0.375 C 1.78125 -0.695312 1.320312 -1.164062 1 -1.78125 C 0.6875 -2.394531 0.53125 -3.132812 0.53125 -4 C 0.53125 -4.863281 0.695312 -5.628906 1.03125 -6.296875 C 1.375 -6.960938 1.859375 -7.484375 2.484375 -7.859375 C 3.117188 -8.234375 3.863281 -8.421875 4.71875 -8.421875 C 5.476562 -8.421875 6.144531 -8.25 6.71875 -7.90625 C 7.300781 -7.5625 7.753906 -7.082031 8.078125 -6.46875 C 8.398438 -5.851562 8.5625 -5.132812 8.5625 -4.3125 C 8.5625 -3.414062 8.382812 -2.640625 8.03125 -1.984375 C 7.6875 -1.328125 7.210938 -0.8125 6.609375 -0.4375 C 6.003906 -0.0703125 5.316406 0.109375 4.546875 0.109375 Z M 4.5 -1.265625 C 4.988281 -1.265625 5.421875 -1.382812 5.796875 -1.625 C 6.179688 -1.863281 6.476562 -2.207031 6.6875 -2.65625 C 6.90625 -3.113281 7.015625 -3.664062 7.015625 -4.3125 C 7.015625 -5.144531 6.800781 -5.8125 6.375 -6.3125 C 5.957031 -6.8125 5.394531 -7.0625 4.6875 -7.0625 C 4.175781 -7.0625 3.722656 -6.929688 3.328125 -6.671875 C 2.941406 -6.410156 2.632812 -6.054688 2.40625 -5.609375 C 2.175781 -5.160156 2.0625 -4.628906 2.0625 -4.015625 C 2.0625 -3.140625 2.273438 -2.460938 2.703125 -1.984375 C 3.140625 -1.503906 3.738281 -1.265625 4.5 -1.265625 Z M 4.5 -1.265625 " />
                    </g>
                </g>
            </g>
            <g fill="#ffffff" fill-opacity="1">
                <g transform="translate(124.076538, 184.29345)">
                    <g>
                        <path
                            d="M -0.109375 0 L 3.421875 -8.296875 L 4.703125 -8.296875 L 8.109375 0 L 6.5625 0 L 5.828125 -1.890625 L 2.203125 -1.890625 L 1.421875 0 Z M 2.71875 -3.171875 L 5.328125 -3.171875 L 4.046875 -6.421875 Z M 2.71875 -3.171875 " />
                    </g>
                </g>
            </g>
            <g fill="#ffffff" fill-opacity="1">
                <g transform="translate(138.432111, 184.29345)">
                    <g>
                        <path
                            d="M 0.859375 0 L 0.859375 -8.296875 L 3.3125 -8.296875 C 4.925781 -8.296875 6.144531 -7.945312 6.96875 -7.25 C 7.800781 -6.5625 8.21875 -5.539062 8.21875 -4.1875 C 8.21875 -3.34375 8.035156 -2.609375 7.671875 -1.984375 C 7.304688 -1.359375 6.785156 -0.867188 6.109375 -0.515625 C 5.441406 -0.171875 4.65625 0 3.75 0 Z M 2.375 -1.34375 L 3.6875 -1.34375 C 4.664062 -1.34375 5.40625 -1.578125 5.90625 -2.046875 C 6.414062 -2.523438 6.671875 -3.21875 6.671875 -4.125 C 6.671875 -5.070312 6.410156 -5.78125 5.890625 -6.25 C 5.378906 -6.71875 4.585938 -6.953125 3.515625 -6.953125 L 2.375 -6.953125 Z M 2.375 -1.34375 " />
                    </g>
                </g>
            </g>
            <g fill="#ffffff" fill-opacity="1">
                <g transform="translate(153.488264, 184.29345)">
                    <g>
                        <path
                            d="M 0.703125 -2.34375 L 0.703125 -3.640625 L 4.203125 -3.640625 L 4.203125 -2.34375 Z M 0.703125 -2.34375 " />
                    </g>
                </g>
            </g>
            <g fill="#ffffff" fill-opacity="1">
                <g transform="translate(164.702931, 184.29345)">
                    <g>
                        <path
                            d="M -0.109375 0 L 3.421875 -8.296875 L 4.703125 -8.296875 L 8.109375 0 L 6.5625 0 L 5.828125 -1.890625 L 2.203125 -1.890625 L 1.421875 0 Z M 2.71875 -3.171875 L 5.328125 -3.171875 L 4.046875 -6.421875 Z M 2.71875 -3.171875 " />
                    </g>
                </g>
            </g>
            <g fill="#ffffff" fill-opacity="1">
                <g transform="translate(179.058509, 184.29345)">
                    <g>
                        <path
                            d="M 0.859375 0 L 0.859375 -8.296875 L 3.3125 -8.296875 C 4.925781 -8.296875 6.144531 -7.945312 6.96875 -7.25 C 7.800781 -6.5625 8.21875 -5.539062 8.21875 -4.1875 C 8.21875 -3.34375 8.035156 -2.609375 7.671875 -1.984375 C 7.304688 -1.359375 6.785156 -0.867188 6.109375 -0.515625 C 5.441406 -0.171875 4.65625 0 3.75 0 Z M 2.375 -1.34375 L 3.6875 -1.34375 C 4.664062 -1.34375 5.40625 -1.578125 5.90625 -2.046875 C 6.414062 -2.523438 6.671875 -3.21875 6.671875 -4.125 C 6.671875 -5.070312 6.410156 -5.78125 5.890625 -6.25 C 5.378906 -6.71875 4.585938 -6.953125 3.515625 -6.953125 L 2.375 -6.953125 Z M 2.375 -1.34375 " />
                    </g>
                </g>
            </g>
            <g fill="#ffffff" fill-opacity="1">
                <g transform="translate(194.114662, 184.29345)">
                    <g>
                        <path
                            d="M 0.859375 0 L 0.859375 -8.296875 L 3.3125 -8.296875 C 4.925781 -8.296875 6.144531 -7.945312 6.96875 -7.25 C 7.800781 -6.5625 8.21875 -5.539062 8.21875 -4.1875 C 8.21875 -3.34375 8.035156 -2.609375 7.671875 -1.984375 C 7.304688 -1.359375 6.785156 -0.867188 6.109375 -0.515625 C 5.441406 -0.171875 4.65625 0 3.75 0 Z M 2.375 -1.34375 L 3.6875 -1.34375 C 4.664062 -1.34375 5.40625 -1.578125 5.90625 -2.046875 C 6.414062 -2.523438 6.671875 -3.21875 6.671875 -4.125 C 6.671875 -5.070312 6.410156 -5.78125 5.890625 -6.25 C 5.378906 -6.71875 4.585938 -6.953125 3.515625 -6.953125 L 2.375 -6.953125 Z M 2.375 -1.34375 " />
                    </g>
                </g>
            </g>
            <g fill="#ffffff" fill-opacity="1">
                <g transform="translate(209.170808, 184.29345)">
                    <g>
                        <path d="M 0.859375 0 L 0.859375 -8.296875 L 2.375 -8.296875 L 2.375 0 Z M 0.859375 0 " />
                    </g>
                </g>
            </g>
            <g fill="#ffffff" fill-opacity="1">
                <g transform="translate(218.715762, 184.29345)">
                    <g>
                        <path
                            d="M 7.890625 -1.609375 C 7.554688 -1.054688 7.101562 -0.628906 6.53125 -0.328125 C 5.957031 -0.0351562 5.3125 0.109375 4.59375 0.109375 C 3.738281 0.109375 3.007812 -0.0507812 2.40625 -0.375 C 1.800781 -0.707031 1.335938 -1.179688 1.015625 -1.796875 C 0.691406 -2.410156 0.53125 -3.140625 0.53125 -3.984375 C 0.53125 -4.867188 0.707031 -5.640625 1.0625 -6.296875 C 1.414062 -6.960938 1.910156 -7.484375 2.546875 -7.859375 C 3.191406 -8.234375 3.9375 -8.421875 4.78125 -8.421875 C 5.5 -8.421875 6.113281 -8.28125 6.625 -8 C 7.132812 -7.726562 7.5625 -7.316406 7.90625 -6.765625 L 6.734375 -5.921875 C 6.523438 -6.316406 6.25 -6.601562 5.90625 -6.78125 C 5.5625 -6.957031 5.179688 -7.046875 4.765625 -7.046875 C 4.234375 -7.046875 3.765625 -6.914062 3.359375 -6.65625 C 2.960938 -6.40625 2.644531 -6.050781 2.40625 -5.59375 C 2.175781 -5.132812 2.0625 -4.609375 2.0625 -4.015625 C 2.0625 -3.148438 2.285156 -2.472656 2.734375 -1.984375 C 3.179688 -1.503906 3.804688 -1.265625 4.609375 -1.265625 C 5.054688 -1.265625 5.46875 -1.363281 5.84375 -1.5625 C 6.21875 -1.769531 6.519531 -2.078125 6.75 -2.484375 Z M 7.890625 -1.609375 " />
                    </g>
                </g>
            </g>
            <g fill="#ffffff" fill-opacity="1">
                <g transform="translate(232.837814, 184.29345)">
                    <g>
                        <path
                            d="M 6.875 -8.296875 L 6.6875 -6.96875 L 4.109375 -6.96875 L 4.109375 0 L 2.59375 0 L 2.59375 -6.96875 L -0.0625 -6.96875 L -0.0625 -8.296875 Z M 6.875 -8.296875 " />
                    </g>
                </g>
            </g>
        </svg>