<?xml version="1.0" encoding="UTF-8" standalone="no"?>
<!-- Created with Inkscape (http://www.inkscape.org/) -->
<svg xmlns:rdf="http://www.w3.org/1999/02/22-rdf-syntax-ns#" xmlns="http://www.w3.org/2000/svg" xmlns:i="http://ns.adobe.com/AdobeIllustrator/10.0/" xmlns:cc="http://web.resource.org/cc/" xmlns:xlink="http://www.w3.org/1999/xlink" xmlns:a="http://ns.adobe.com/AdobeSVGViewerExtensions/3.0/" xmlns:dc="http://purl.org/dc/elements/1.1/" xmlns:svg="http://www.w3.org/2000/svg" xmlns:inkscape="http://www.inkscape.org/namespaces/inkscape" xmlns:sodipodi="http://sodipodi.sourceforge.net/DTD/sodipodi-0.dtd" xmlns:ns1="http://sozi.baierouge.fr" id="svg2" xml:space="preserve" version="1.0" viewBox="0 0 466.115 466.117" inkscape:version="0.91 r13725">
		<path id="path13" style="stroke:#000000" d="m233.06 0.5c-128.44 0-232.56 104.12-232.56 232.56s104.12 232.56 232.56 232.56 232.56-104.12 232.56-232.56-104.12-232.56-232.56-232.56zm0 363.96c-72.57 0-131.4-58.83-131.4-131.4s58.83-131.4 131.4-131.4c72.56 0 131.39 58.83 131.39 131.4s-58.83 131.4-131.39 131.4z"/><path id="path15" style="stroke:#000000;fill:#ffffff" d="m233.06 25.5c-114.63 0-207.56 92.93-207.56 207.56-0.001 114.63 92.93 207.56 207.56 207.56s207.56-92.93 207.56-207.56-92.93-207.56-207.56-207.56zm0 395.35c-103.72 0-187.79-84.08-187.79-187.79-0.003-103.72 84.07-187.79 187.79-187.79 103.71-0.002 187.79 84.08 187.79 187.79s-84.08 187.79-187.79 187.79z"/><g id="g17">
							<radialGradient id="XMLID_9_" gradientUnits="userSpaceOnUse" cy="233.06" cx="233.06" r="134.88">
							<stop id="stop20" style="stop-color:#ffffff" offset=".0056"/>
							<stop id="stop22" style="stop-color:#fdfdfd" offset=".419"/>
							<stop id="stop24" style="stop-color:#f6f6f6" offset=".56780"/>
							<stop id="stop26" style="stop-color:#ebebeb" offset="0.674"/>
							<stop id="stop28" style="stop-color:#dadada" offset=".75980"/>
							<stop id="stop30" style="stop-color:#c4c4c4" offset=".83340"/>
							<stop id="stop32" style="stop-color:#a8a8a8" offset=".89850"/>
							<stop id="stop34" style="stop-color:#898989" offset=".9558"/>
							<stop id="stop36" style="stop-color:#6b6b6b" offset="1"/>
							<a:midPointStop style="stop-color:#FFFFFF" offset="0.0056"/>
							<a:midPointStop style="stop-color:#FFFFFF" offset="0.87"/>
							<a:midPointStop style="stop-color:#6B6B6B" offset="1"/>
						</radialGradient>
						<circle id="circle38" cy="233.06" cx="233.06" r="134.88" style="stroke:#000000;fill:url(#XMLID_9_)"/> 
						<circle id="circle40" cy="233.06" cx="233.06" r="128.17" style="stroke:#000000;fill:#ffffff"/> 
							<radialGradient id="XMLID_10_" gradientUnits="userSpaceOnUse" cy="233.06" cx="233.06" r="122.07">
							<stop id="stop43" style="stop-color:#ffffff" offset="0"/>
							<stop id="stop45" style="stop-color:#fdfdfd" offset=".35770"/>
							<stop id="stop47" style="stop-color:#f6f6f6" offset=".493"/>
							<stop id="stop49" style="stop-color:#eaeaea" offset=".5905"/>
							<stop id="stop51" style="stop-color:#d9d9d9" offset="0.67"/>
							<stop id="stop53" style="stop-color:#c3c3c3" offset=".73840"/>
							<stop id="stop55" style="stop-color:#a7a7a7" offset=".79930"/>
							<stop id="stop57" style="stop-color:#868686" offset=".8545"/>
							<stop id="stop59" style="stop-color:#606060" offset=".90540"/>
							<stop id="stop61" style="stop-color:#353535" offset=".9526"/>
							<stop id="stop63" style="stop-color:#0b0b0b" offset=".99490"/>
							<stop id="stop65" style="stop-color:#000000" offset="1"/>
							<a:midPointStop style="stop-color:#FFFFFF" offset="0"/>
							<a:midPointStop style="stop-color:#FFFFFF" offset="0.8644"/>
							<a:midPointStop style="stop-color:#000000" offset="1"/>
						</radialGradient>
						<circle id="circle67" cy="233.06" cx="233.06" r="122.07" style="stroke:#000000;fill:url(#XMLID_10_)"/> 
					</g><g id="g69">
							<radialGradient id="XMLID_11_" gradientUnits="userSpaceOnUse" cy="233.06" cx="233.06" r="43.023">
							<stop id="stop72" style="stop-color:#ffffff" offset="0"/>
							<stop id="stop74" style="stop-color:#fdfdfd" offset=".37260"/>
							<stop id="stop76" style="stop-color:#f6f6f6" offset=".50690"/>
							<stop id="stop78" style="stop-color:#ebebeb" offset=".60260"/>
							<stop id="stop80" style="stop-color:#dadada" offset="0.68"/>
							<stop id="stop82" style="stop-color:#c4c4c4" offset=".74630"/>
							<stop id="stop84" style="stop-color:#a8a8a8" offset="0.805"/>
							<stop id="stop86" style="stop-color:#888888" offset=".8581"/>
							<stop id="stop88" style="stop-color:#626262" offset=".90690"/>
							<stop id="stop90" style="stop-color:#373737" offset=".95230"/>
							<stop id="stop92" style="stop-color:#0e0e0e" offset=".99260"/>
							<stop id="stop94" style="stop-color:#000000" offset="1"/>
							<a:midPointStop style="stop-color:#FFFFFF" offset="0"/>
							<a:midPointStop style="stop-color:#FFFFFF" offset="0.87"/>
							<a:midPointStop style="stop-color:#000000" offset="1"/>
						</radialGradient>
						<circle id="circle96" cy="233.06" cx="233.06" r="43.023" style="stroke:#000000;fill:url(#XMLID_11_)"/> 
						<circle id="circle98" cy="233.06" cx="233.06" r="32.506" style="stroke:#000000"/> 
						<circle id="circle100" cy="233.06" cx="233.06" r="29" style="stroke:#000000;fill:#ffffff"/> 
						<circle id="circle102" cy="233.06" cx="233.06" r="19.364" style="stroke:#000000"/> 
					</g><g id="g104">
						<g id="g106">
							<g id="g108">
									<radialGradient id="XMLID_12_" gradientUnits="userSpaceOnUse" cy="152.86" cx="229.16" r="31.171">
									<stop id="stop111" style="stop-color:#ffffff" offset="0"/>
									<stop id="stop113" style="stop-color:#fcfcfc" offset="0.158"/>
									<stop id="stop115" style="stop-color:#f2f2f2" offset=".2879"/>
									<stop id="stop117" style="stop-color:#e0e0e0" offset=".40790"/>
									<stop id="stop119" style="stop-color:#c8c8c8" offset=".5219"/>
									<stop id="stop121" style="stop-color:#a9a9a9" offset=".63170"/>
									<stop id="stop123" style="stop-color:#828282" offset=".73830"/>
									<stop id="stop125" style="stop-color:#555555" offset=".84240"/>
									<stop id="stop127" style="stop-color:#212121" offset="0.942"/>
									<stop id="stop129" style="stop-color:#000000" offset="1"/>
									<a:midPointStop style="stop-color:#FFFFFF" offset="0"/>
									<a:midPointStop style="stop-color:#FFFFFF" offset="0.7458"/>
									<a:midPointStop style="stop-color:#000000" offset="1"/>
								</radialGradient>
								<circle id="circle131" cy="152.86" cx="229.16" r="31.171" style="stroke:#000000;fill:url(#XMLID_12_)"/> 
								<circle id="circle133" cy="161.64" cx="229.16" r="18.762" style="stroke:#000000"/> 
							</g>
							<g id="g135">
									<radialGradient id="XMLID_13_" gradientUnits="userSpaceOnUse" cy="210.8" cx="154.91" r="31.18">
									<stop id="stop138" style="stop-color:#ffffff" offset="0"/>
									<stop id="stop140" style="stop-color:#fcfcfc" offset="0.158"/>
									<stop id="stop142" style="stop-color:#f2f2f2" offset=".2879"/>
									<stop id="stop144" style="stop-color:#e0e0e0" offset=".40790"/>
									<stop id="stop146" style="stop-color:#c8c8c8" offset=".5219"/>
									<stop id="stop148" style="stop-color:#a9a9a9" offset=".63170"/>
									<stop id="stop150" style="stop-color:#828282" offset=".73830"/>
									<stop id="stop152" style="stop-color:#555555" offset=".84240"/>
									<stop id="stop154" style="stop-color:#212121" offset="0.942"/>
									<stop id="stop156" style="stop-color:#000000" offset="1"/>
									<a:midPointStop style="stop-color:#FFFFFF" offset="0"/>
									<a:midPointStop style="stop-color:#FFFFFF" offset="0.7458"/>
									<a:midPointStop style="stop-color:#000000" offset="1"/>
								</radialGradient>
								<circle id="circle158" cy="210.8" cx="154.91" r="31.171" style="stroke:#000000;fill:url(#XMLID_13_)"/> 
								<circle id="circle160" cy="213.51" cx="163.26" r="18.763" style="stroke:#000000"/> 
							</g>
							<g id="g162">
									<radialGradient id="XMLID_14_" gradientUnits="userSpaceOnUse" cy="299.32" cx="187.07" r="31.174">
									<stop id="stop165" style="stop-color:#ffffff" offset="0"/>
									<stop id="stop167" style="stop-color:#fcfcfc" offset="0.158"/>
									<stop id="stop169" style="stop-color:#f2f2f2" offset=".2879"/>
									<stop id="stop171" style="stop-color:#e0e0e0" offset=".40790"/>
									<stop id="stop173" style="stop-color:#c8c8c8" offset=".5219"/>
									<stop id="stop175" style="stop-color:#a9a9a9" offset=".63170"/>
									<stop id="stop177" style="stop-color:#828282" offset=".73830"/>
									<stop id="stop179" style="stop-color:#555555" offset=".84240"/>
									<stop id="stop181" style="stop-color:#212121" offset="0.942"/>
									<stop id="stop183" style="stop-color:#000000" offset="1"/>
									<a:midPointStop style="stop-color:#FFFFFF" offset="0"/>
									<a:midPointStop style="stop-color:#FFFFFF" offset="0.7458"/>
									<a:midPointStop style="stop-color:#000000" offset="1"/>
								</radialGradient>
								<circle id="circle185" cy="299.32" cx="187.07" r="31.171" style="stroke:#000000;fill:url(#XMLID_14_)"/> 
								<circle id="circle187" cy="292.22" cx="192.23" r="18.762" style="stroke:#000000"/> 
							</g>
							<g id="g189">
									<radialGradient id="XMLID_15_" gradientUnits="userSpaceOnUse" cy="296.09" cx="281.2" r="31.173">
									<stop id="stop192" style="stop-color:#ffffff" offset="0"/>
									<stop id="stop194" style="stop-color:#fcfcfc" offset="0.158"/>
									<stop id="stop196" style="stop-color:#f2f2f2" offset=".2879"/>
									<stop id="stop198" style="stop-color:#e0e0e0" offset=".40790"/>
									<stop id="stop200" style="stop-color:#c8c8c8" offset=".5219"/>
									<stop id="stop202" style="stop-color:#a9a9a9" offset=".63170"/>
									<stop id="stop204" style="stop-color:#828282" offset=".73830"/>
									<stop id="stop206" style="stop-color:#555555" offset=".84240"/>
									<stop id="stop208" style="stop-color:#212121" offset="0.942"/>
									<stop id="stop210" style="stop-color:#000000" offset="1"/>
									<a:midPointStop style="stop-color:#FFFFFF" offset="0"/>
									<a:midPointStop style="stop-color:#FFFFFF" offset="0.7458"/>
									<a:midPointStop style="stop-color:#000000" offset="1"/>
								</radialGradient>
								<circle id="circle212" cy="296.09" cx="281.2" r="31.171" style="stroke:#000000;fill:url(#XMLID_15_)"/> 
								<circle id="circle214" cy="288.99" cx="276.04" r="18.763" style="stroke:#000000"/> 
							</g>
							<g id="g216">
									<radialGradient id="XMLID_16_" gradientUnits="userSpaceOnUse" cy="205.57" cx="307.21" r="31.181">
									<stop id="stop219" style="stop-color:#ffffff" offset="0"/>
									<stop id="stop221" style="stop-color:#fcfcfc" offset="0.158"/>
									<stop id="stop223" style="stop-color:#f2f2f2" offset=".2879"/>
									<stop id="stop225" style="stop-color:#e0e0e0" offset=".40790"/>
									<stop id="stop227" style="stop-color:#c8c8c8" offset=".5219"/>
									<stop id="stop229" style="stop-color:#a9a9a9" offset=".63170"/>
									<stop id="stop231" style="stop-color:#828282" offset=".73830"/>
									<stop id="stop233" style="stop-color:#555555" offset=".84240"/>
									<stop id="stop235" style="stop-color:#212121" offset="0.942"/>
									<stop id="stop237" style="stop-color:#000000" offset="1"/>
									<a:midPointStop style="stop-color:#FFFFFF" offset="0"/>
									<a:midPointStop style="stop-color:#FFFFFF" offset="0.7458"/>
									<a:midPointStop style="stop-color:#000000" offset="1"/>
								</radialGradient>
								<circle id="circle239" cy="205.57" cx="307.21" r="31.172" style="stroke:#000000;fill:url(#XMLID_16_)"/> 
								<path id="path241" style="stroke:#000000" d="m304.66 226.13c-9.85 3.2-20.44-2.19-23.64-12.05s2.19-20.44 12.04-23.64c9.86-3.2 20.44 2.19 23.64 12.04 3.21 9.86-2.18 20.44-12.04 23.65z"/>
							</g>
						</g>
						<g id="g243">
							<g id="g245">
								<path id="path247" style="stroke:#000000;fill:#ffffff" d="m241.18 166.29c0 6.02-4.88 10.9-10.91 10.9-6.02 0-10.9-4.88-10.9-10.9s4.88-10.91 10.9-10.91c6.03 0 10.91 4.89 10.91 10.91z"/>
								<polygon id="polygon249" style="stroke:#000000;fill:#ffffff" points="224.85 175.67 219.44 166.29 224.85 156.91 235.69 156.91 241.1 166.29 235.69 175.67"/>
								<polygon id="polygon251" style="stroke:#000000;fill:#ffffff" points="225.46 174.62 220.65 166.29 225.46 157.96 235.08 157.96 239.89 166.29 235.08 174.62"/>
							</g>
							<g id="g253">
								<circle id="circle255" cy="212.8" cx="168.53" r="10.905" style="stroke:#000000;fill:#ffffff"/> 
								<polygon id="polygon257" style="stroke:#000000;fill:#ffffff" points="175.78 220.86 165.19 223.11 157.94 215.06 161.28 204.75 171.88 202.5 179.13 210.55"/>
								<polygon id="polygon259" style="stroke:#000000;fill:#ffffff" points="174.97 219.95 165.56 221.96 159.12 214.8 162.1 205.65 171.51 203.65 177.94 210.8"/>
							</g>
							<g id="g261">
								<circle id="circle263" cy="285.89" cx="193.69" r="10.906" style="stroke:#000000;fill:#ffffff"/> 
								<polygon id="polygon265" style="stroke:#000000;fill:#ffffff" points="203.59 281.49 202.46 292.26 192.56 296.67 183.79 290.3 184.93 279.53 194.82 275.12"/>
								<polygon id="polygon267" style="stroke:#000000;fill:#ffffff" points="202.48 281.98 201.48 291.55 192.69 295.46 184.9 289.81 185.91 280.24 194.7 276.33"/>
							</g>
							<g id="g269">
								<path id="path271" style="stroke:#000000;fill:#ffffff" d="m262.16 290.96c-3.54-4.87-2.46-11.69 2.41-15.23s11.69-2.46 15.23 2.41 2.46 11.69-2.41 15.23c-4.87 3.55-11.69 2.46-15.23-2.41z"/>
								<polygon id="polygon273" style="stroke:#000000;fill:#ffffff" points="269.85 273.78 279.74 278.18 280.88 288.96 272.11 295.33 262.22 290.92 261.08 280.14"/>
								<polygon id="polygon275" style="stroke:#000000;fill:#ffffff" points="269.98 274.98 278.76 278.9 279.77 288.46 271.98 294.12 263.2 290.21 262.19 280.64"/>
							</g>
							<g id="g277">
								<circle id="circle279" cy="210.63" cx="293.59" r="10.906" style="stroke:#000000;fill:#ffffff"/> 
								<polygon id="polygon281" style="stroke:#000000;fill:#ffffff" points="282.99 208.38 290.24 200.33 300.84 202.58 304.18 212.88 296.94 220.94 286.34 218.68"/>
								<polygon id="polygon283" style="stroke:#000000;fill:#ffffff" points="284.18 208.63 290.61 201.48 300.02 203.48 303 212.63 296.56 219.78 287.15 217.78"/>
							</g>
						</g>
					</g><g id="g285">
						<path id="path287" style="fill:#ffffff" d="m246.93 56.859l-0.57 16.875-3.25-0.111 0.24-7.125-2.44-0.083-0.62 18.188 1.81 0.062-0.34 10.187-9.25-0.314 0.34-10.187 2.13 0.072 0.62-18.188-2.56-0.087-0.25 7.125-3.25-0.111 0.58-16.875 16.81 0.572z"/>
						<path id="path289" style="fill:#ffffff" d="m269.66 70.415l-4.3 19.938 1.62 0.351-1.68 7.813-7-1.51 1.68-7.813 1.44 0.31 2.7-12.5-1.44-0.31 1.6-7.438 5.38 1.159zm1.88-9.603l-1.36 6.25-3.93-0.85 1.35-6.25 3.94 0.85z"/>
						<path id="path291" style="fill:#ffffff" d="m287.96 75.665l5.06 1.985-1.26 3.21c1.5-2.17 2.84-3.024 4.01-2.564 1.81 0.709 1.91 3.116 0.3 7.223-1.06 2.698-2.05 4.941-2.97 6.729l-3.01-1.183c0.51-0.965 0.85-1.655 1.01-2.073 0.98-2.489 1.04-3.899 0.2-4.229-0.62-0.241-1.37 0.771-2.26 3.036l-3.47 8.852 1.63 0.637-2.92 7.442-6.69-2.63 2.92-7.434 1.37 0.539 4.66-11.875-1.38-0.539 2.8-7.126z"/>
						<path id="path293" style="fill:#ffffff" d="m315.4 107.43c-0.44 0.99-1.07 2.14-1.86 3.43-3.04 4.91-6.06 6.44-9.07 4.58-2.1-1.3-2.95-2.97-2.54-4.99 0.41-2.03 2.38-5.91 5.92-11.641 2.7-4.365 4.87-7.126 6.51-8.284 1.64-1.156 3.4-1.159 5.26-0.007 1.85 1.143 2.62 2.732 2.3 4.767-0.32 2.036-1.82 5.235-4.52 9.585l-1.02 1.61-6.01-3.72-1.51 2.4-0.63 1.22c-0.39 0.89-0.24 1.52 0.47 1.91 0.81 0.46 1.68-0.06 2.61-1.57l0.49-0.79 0.35-0.51 3.25 2.01zm-3.44-7.4l2.54 1.57 1.07-1.725c0.86-1.39 0.87-2.341 0.04-2.854-0.88-0.542-1.83 0.023-2.87 1.696-0.21 0.348-0.47 0.786-0.78 1.313z"/>
						<path id="path295" style="fill:#ffffff" d="m371.62 124.85l4.11 5.87c2.05 2.94 2.87 5.24 2.47 6.9-0.41 1.67-2.3 3.68-5.68 6.04-2.5 1.74-4.36 2.67-5.58 2.78-1.23 0.12-2.55-0.51-3.96-1.88 0.75 2.16 0.88 3.76 0.38 4.81-0.5 1.06-2.1 2.53-4.82 4.43-3.56 2.49-6.26 3.68-8.07 3.58-1.82-0.1-3.71-1.56-5.67-4.36l-4.43-6.34 8.38-5.85 1.05 1.5 14.87-10.39-1.05-1.5 8-5.59zm-12.77 17.66l-6 4.19 0.5 0.72c1.01 1.44 2.6 1.4 4.78-0.13 1.82-1.27 2.22-2.63 1.2-4.09l-0.48-0.69zm8.88-6.2l-5.44 3.8 0.57 0.83c0.84 1.2 2.18 1.16 4.02-0.13 1.79-1.25 2.24-2.51 1.34-3.79l-0.49-0.71z"/>
						<path id="path297" style="fill:#ffffff" d="m382.06 160.52l2.22 5.06-3.16 1.38c2.55-0.47 4.07-0.14 4.57 1 0.76 1.74-0.86 3.49-4.87 5.25-2.63 1.15-4.9 2.03-6.79 2.65l-1.3-2.97c1.03-0.31 1.74-0.55 2.15-0.73 2.41-1.06 3.44-1.98 3.09-2.78-0.25-0.58-1.47-0.39-3.65 0.57l-8.73 3.83 0.65 1.5-7.31 3.2-2.87-6.56 7.31-3.21 0.6 1.38 11.69-5.13-0.6-1.37 7-3.07z"/>
						<path id="path299" style="fill:#ffffff" d="m375.62 205.15l-7.68 1.8c-0.65-0.64-1.06-1.33-1.23-2.07-0.37-1.58 0.25-2.91 1.84-4.01-1.9-0.2-3.02-1.02-3.35-2.45-0.61-2.58 2.16-4.59 8.31-6.03 3.23-0.75 6.01 0.17 8.36 2.77 1.17 1.32 2.23 1.87 3.17 1.65 1.18-0.27 1.66-0.87 1.45-1.78-0.23-0.96-1.03-1.28-2.43-0.95-0.28 0.06-0.7 0.2-1.26 0.42l-0.87-3.73c1.13-0.54 2.49-1 4.08-1.37 4.43-1.04 7.08 0.32 7.96 4.08 0.82 3.49-1.06 5.77-5.62 6.84l-2.2 0.52-7.89 1.85c-2.25 0.52-3.29 1.16-3.11 1.9 0.03 0.14 0.19 0.33 0.47 0.56zm4.16-6.91c-1.62-1.95-3.17-2.75-4.65-2.4-1.29 0.3-1.8 0.98-1.55 2.05 0.27 1.14 1.53 1.45 3.8 0.92l2.4-0.57z"/>
						<path id="path301" style="fill:#ffffff" d="m377.85 233.9l-8 0.29-0.24-6.75 8-0.29 0.04 1.19 8.14-0.3 1-0.04 1.25-0.07c1.82-0.07 2.72-0.54 2.69-1.4-0.06-1.49-1.81-2.17-5.27-2.05l-7.94 0.29 0.05 1.44-8 0.29-0.24-6.75 8-0.29 0.05 1.5 12.75-0.47-0.05-1.5 7.62-0.27 0.2 5.31-3.47 0.13c2.6 0.91 3.93 2.23 3.99 3.96 0.08 2.3-1.83 3.53-5.75 3.67l-2.12 0.08-12.75 0.47 0.05 1.56z"/>
						<path id="path303" style="fill:#ffffff" d="m404.85 264.54l-29.75-4.67-0.22 1.44-7.94-1.25 0.74-4.68 2.6 0.4c-0.2-0.43-0.51-0.81-0.93-1.16-1.14-0.96-1.61-2.08-1.41-3.38 0.42-2.7 3.92-3.53 10.49-2.5l7.95 1.25c7.34 1.15 10.8 3.06 10.38 5.72-0.23 1.5-1.34 2.5-3.32 3.01l5.72 0.9 0.25-1.63 6.32 0.99-0.88 5.56zm-15.93-8.22c0.24-1.08-0.86-1.81-3.32-2.2l-3.3-0.55-3.06-0.48c-2.56-0.4-3.89-0.04-4.01 1.08-0.1 1.02 1.7 1.83 5.41 2.41 5.28 0.83 8.05 0.74 8.28-0.26z"/>
					</g><g id="g305">
						<path id="path307" style="fill:#ffffff" d="m218 406.8l0.57-16.88 3.25 0.11-0.24 7.13 2.44 0.08 0.62-18.19-1.81-0.06 0.34-10.19 9.25 0.32-0.34 10.18-2.13-0.07-0.62 18.19 2.56 0.09 0.25-7.13 3.25 0.11-0.58 16.88-16.81-0.57z"/>
						<path id="path309" style="fill:#ffffff" d="m193.4 402.84l1.34-6.25 3.94 0.85-1.35 6.25-3.93-0.85zm1.87-9.6l4.3-19.94-1.62-0.35 1.68-7.81 7 1.51-1.68 7.81-1.44-0.31-2.7 12.5 1.44 0.31-1.6 7.44-5.38-1.16z"/>
						<path id="path311" style="fill:#ffffff" d="m176.97 387.99l-5.06-1.98 1.26-3.21c-1.5 2.17-2.84 3.02-4.01 2.56-1.81-0.71-1.91-3.12-0.3-7.22 1.06-2.7 2.05-4.94 2.97-6.73l3.01 1.18c-0.51 0.97-0.84 1.66-1.01 2.07-0.98 2.49-1.04 3.9-0.2 4.23 0.62 0.25 1.37-0.77 2.26-3.03l3.47-8.85-1.63-0.64 2.92-7.44 6.69 2.62-2.92 7.44-1.37-0.54-4.66 11.88 1.37 0.54-2.79 7.12z"/>
						<path id="path313" style="fill:#ffffff" d="m149.52 356.23c0.46-1 1.08-2.14 1.87-3.43 3.04-4.91 6.06-6.44 9.07-4.58 2.1 1.3 2.95 2.96 2.54 4.99s-2.38 5.91-5.92 11.64c-2.7 4.36-4.87 7.12-6.51 8.28s-3.4 1.16-5.26 0.01c-1.85-1.15-2.62-2.74-2.3-4.77 0.32-2.04 1.83-5.23 4.52-9.59l1.02-1.6 6.01 3.71 1.52-2.39 0.62-1.23c0.39-0.88 0.24-1.52-0.46-1.91-0.82-0.46-1.69 0.07-2.62 1.57l-0.49 0.79-0.35 0.52-3.26-2.01zm3.45 7.39l-2.54-1.57-1.07 1.73c-0.86 1.39-0.87 2.34-0.04 2.86 0.88 0.54 1.83-0.03 2.86-1.7 0.22-0.35 0.48-0.79 0.79-1.32z"/>
						<path id="path315" style="fill:#ffffff" d="m93.308 338.81l-4.105-5.87c-2.054-2.94-2.877-5.25-2.47-6.91 0.408-1.66 2.301-3.67 5.679-6.03 2.492-1.74 4.352-2.67 5.579-2.79 1.227-0.11 2.549 0.51 3.959 1.88-0.75-2.15-0.88-3.75-0.38-4.81 0.5-1.05 2.1-2.52 4.81-4.42 3.57-2.49 6.26-3.69 8.08-3.58 1.82 0.1 3.71 1.55 5.67 4.36l4.43 6.33-8.38 5.86-1.04-1.5-14.88 10.39 1.05 1.5-8.002 5.59zm3.895-11.47l5.437-3.8-0.58-0.82c-0.83-1.2-2.17-1.16-4.006 0.12-1.789 1.25-2.238 2.52-1.347 3.8l0.496 0.7zm8.877-6.2l6-4.19-0.5-0.71c-1.01-1.44-2.6-1.4-4.78 0.12-1.82 1.27-2.22 2.64-1.2 4.1l0.48 0.68z"/>
						<path id="path317" style="fill:#ffffff" d="m82.875 303.14l-2.221-5.06 3.154-1.39c-2.548 0.47-4.07 0.14-4.568-0.99-0.764-1.74 0.858-3.49 4.866-5.25 2.633-1.15 4.898-2.04 6.796-2.65l1.301 2.96c-1.029 0.31-1.746 0.56-2.151 0.73-2.409 1.06-3.439 1.99-3.092 2.78 0.255 0.58 1.472 0.39 3.649-0.56l8.732-3.83-0.657-1.5 7.316-3.21 2.88 6.56-7.32 3.21-0.6-1.37-11.69 5.12 0.604 1.38-6.999 3.07z"/>
						<path id="path319" style="fill:#ffffff" d="m89.312 258.5l7.681-1.8c0.645 0.65 1.054 1.34 1.226 2.07 0.37 1.58-0.244 2.92-1.842 4.01 1.902 0.21 3.021 1.03 3.356 2.46 0.607 2.58-2.167 4.58-8.313 6.02-3.227 0.76-6.015-0.16-8.364-2.77-1.17-1.32-2.227-1.87-3.17-1.65-1.178 0.28-1.66 0.87-1.447 1.78 0.227 0.97 1.035 1.29 2.428 0.96 0.286-0.06 0.706-0.21 1.259-0.42l0.873 3.73c-1.131 0.54-2.491 0.99-4.081 1.37-4.426 1.03-7.08-0.33-7.961-4.09-0.817-3.49 1.059-5.77 5.627-6.84l2.196-0.51 7.891-1.85c2.248-0.53 3.285-1.16 3.11-1.91-0.034-0.14-0.19-0.32-0.469-0.56zm-4.159 6.91c1.617 1.95 3.167 2.76 4.649 2.41 1.282-0.3 1.798-0.98 1.548-2.05-0.268-1.15-1.534-1.45-3.8-0.92l-2.397 0.56z"/>
						<path id="path321" style="fill:#ffffff" d="m87.076 229.76l8-0.29 0.248 6.75-8 0.29-0.044-1.19-8.137 0.3-1.003 0.04-1.253 0.07c-1.82 0.07-2.715 0.53-2.684 1.4 0.055 1.49 1.811 2.17 5.267 2.04l7.94-0.29-0.053-1.44 8-0.29 0.247 6.75-8 0.3-0.055-1.5-12.75 0.46 0.055 1.5-7.625 0.28-0.194-5.31 3.463-0.13c-2.596-0.92-3.925-2.24-3.988-3.96-0.084-2.31 1.832-3.53 5.75-3.68l2.123-0.07 12.75-0.47-0.057-1.56z"/>
						<path id="path323" style="fill:#ffffff" d="m60.076 199.11l29.75 4.67 0.226-1.43 7.938 1.24-0.736 4.69-2.6-0.41c0.199 0.43 0.509 0.82 0.928 1.17 1.141 0.96 1.61 2.08 1.407 3.38-0.424 2.69-3.92 3.53-10.489 2.5l-7.953-1.25c-7.337-1.15-10.796-3.06-10.378-5.73 0.235-1.5 1.341-2.5 3.316-3l-5.714-0.9-0.255 1.63-6.313-0.99 0.873-5.57zm15.935 8.23c-0.244 1.08 0.863 1.81 3.323 2.2l3.3 0.54 3.058 0.48c2.553 0.4 3.888 0.04 4.007-1.07 0.104-1.03-1.697-1.83-5.406-2.41-5.288-0.83-8.048-0.75-8.282 0.26z"/>
					</g>
	<metadata><rdf:RDF><cc:Work><dc:format>image/svg+xml</dc:format><dc:type rdf:resource="http://purl.org/dc/dcmitype/StillImage"/><cc:license rdf:resource="http://creativecommons.org/licenses/publicdomain/"/><dc:publisher><cc:Agent rdf:about="http://openclipart.org/"><dc:title>Openclipart</dc:title></cc:Agent></dc:publisher><dc:title>Tire with rim.</dc:title><dc:date>2007-02-08T18:16:10</dc:date><dc:description>Here is a tire with rim that can be used for logos, designs etc.</dc:description><dc:source>https://openclipart.org/detail/3132/tire-with-rim.-by-azieser</dc:source><dc:creator><cc:Agent><dc:title>azieser</dc:title></cc:Agent></dc:creator><dc:subject><rdf:Bag><rdf:li>car</rdf:li><rdf:li>pneu</rdf:li><rdf:li>rim</rdf:li><rdf:li>round</rdf:li><rdf:li>tire</rdf:li><rdf:li>transportation</rdf:li></rdf:Bag></dc:subject></cc:Work><cc:License rdf:about="http://creativecommons.org/licenses/publicdomain/"><cc:permits rdf:resource="http://creativecommons.org/ns#Reproduction"/><cc:permits rdf:resource="http://creativecommons.org/ns#Distribution"/><cc:permits rdf:resource="http://creativecommons.org/ns#DerivativeWorks"/></cc:License></rdf:RDF></metadata></svg>
