<?xml version="1.0" encoding="utf-8"?>

<!DOCTYPE svg PUBLIC "-//W3C//DTD SVG 1.1//EN" "http://www.w3.org/Graphics/SVG/1.1/DTD/svg11.dtd">
<svg version="1.1" id="Layer_1" xmlns="http://www.w3.org/2000/svg" xmlns:xlink="http://www.w3.org/1999/xlink" x="0px" y="0px"
	 viewBox="0 0 1620.0999 1645.0925" enable-background="new 0 0 1620.0999 1645.0925" xml:space="preserve">
<g>
	<g>
		
			<linearGradient id="SVGID_1_" gradientUnits="userSpaceOnUse" x1="981.5499" y1="422.5463" x2="810.0499" y2="422.5463" gradientTransform="matrix(0.9397 0.342 -0.342 0.9397 330.1794 -227.4478)">
			<stop  offset="0" style="stop-color:#FFFFFF"/>
			<stop  offset="0.9663" style="stop-color:#231F20"/>
		</linearGradient>
		<path fill="url(#SVGID_1_)" d="M1083.666,70.7922l-54.8942,150.8207c0,0,62.6207,174.4218,2.5056,339.5865
			C971.1624,726.3641,811.076,819.7272,811.076,819.7272l-1.0261,2.8191c0,0,222.4083-109.6294,297.9653-317.2206
			S1083.666,70.7922,1083.666,70.7922z"/>
		
			<linearGradient id="SVGID_2_" gradientUnits="userSpaceOnUse" x1="735.6938" y1="422.5463" x2="601.7798" y2="422.5463" gradientTransform="matrix(0.9397 0.342 -0.342 0.9397 330.1794 -227.4478)">
			<stop  offset="0" style="stop-color:#FFFFFF"/>
			<stop  offset="1" style="stop-color:#000000"/>
		</linearGradient>
		<path fill="url(#SVGID_2_)" d="M808.5704,480.1406c60.115-165.1647,220.2015-258.5278,220.2015-258.5278l54.8942-150.8207
			c0,0-222.4083,109.6294-297.9653,317.2206s24.3492,434.5335,24.3492,434.5335l1.0261-2.8191
			C811.076,819.7272,748.4553,645.3054,808.5704,480.1406z"/>
	</g>
	<g>
		
			<linearGradient id="SVGID_3_" gradientUnits="userSpaceOnUse" x1="981.5499" y1="422.5463" x2="810.0499" y2="422.5463" gradientTransform="matrix(0.766 0.6428 -0.6428 0.766 718.2382 -328.2508)">
			<stop  offset="0" style="stop-color:#FFFFFF"/>
			<stop  offset="0.9663" style="stop-color:#231F20"/>
		</linearGradient>
		<path fill="url(#SVGID_3_)" d="M1324.28,209.7107l-103.1674,122.9501c0,0-0.8116,185.3205-113.7909,319.964
			C994.3424,787.2684,811.9783,820.2482,811.9783,820.2482l-1.9284,2.2981c0,0,246.491-26.9498,388.4917-196.1797
			S1324.28,209.7107,1324.28,209.7107z"/>
		
			<linearGradient id="SVGID_4_" gradientUnits="userSpaceOnUse" x1="735.6938" y1="422.5463" x2="601.7798" y2="422.5463" gradientTransform="matrix(0.766 0.6428 -0.6428 0.766 718.2382 -328.2508)">
			<stop  offset="0" style="stop-color:#FFFFFF"/>
			<stop  offset="1" style="stop-color:#000000"/>
		</linearGradient>
		<path fill="url(#SVGID_4_)" d="M925.7692,500.2842c112.9793-134.6436,295.3434-167.6233,295.3434-167.6233L1324.28,209.7107
			c0,0-246.491,26.9498-388.4916,196.1797S810.0499,822.5463,810.0499,822.5463l1.9284-2.2981
			C811.9783,820.2482,812.7899,634.9277,925.7692,500.2842z"/>
	</g>
	<g>
		
			<linearGradient id="SVGID_5_" gradientUnits="userSpaceOnUse" x1="981.5499" y1="422.5463" x2="810.0499" y2="422.5463" gradientTransform="matrix(0.5 0.866 -0.866 0.5 1117.371 -290.2507)">
			<stop  offset="0" style="stop-color:#FFFFFF"/>
			<stop  offset="0.9663" style="stop-color:#231F20"/>
		</linearGradient>
		<path fill="url(#SVGID_5_)" d="M1502.8702,422.5463l-138.9971,80.25c0,0-64.1459,173.8667-216.3625,261.749
			s-334.8626,56.501-334.8626,56.501l-2.5981,1.5c0,0,240.8431,58.9803,432.1602-51.4766S1502.8702,422.5463,1502.8702,422.5463z"/>
		
			<linearGradient id="SVGID_6_" gradientUnits="userSpaceOnUse" x1="735.6938" y1="422.5463" x2="601.7798" y2="422.5463" gradientTransform="matrix(0.5 0.866 -0.866 0.5 1117.371 -290.2507)">
			<stop  offset="0" style="stop-color:#FFFFFF"/>
			<stop  offset="1" style="stop-color:#000000"/>
		</linearGradient>
		<path fill="url(#SVGID_6_)" d="M1029.0106,559.2972c152.2167-87.8823,334.8625-56.501,334.8625-56.501l138.9971-80.25
			c0,0-240.843-58.9803-432.1602,51.4767S810.0499,822.5463,810.0499,822.5463l2.5981-1.5
			C812.648,821.0463,876.7939,647.1796,1029.0106,559.2972z"/>
	</g>
	<g>
		
			<linearGradient id="SVGID_7_" gradientUnits="userSpaceOnUse" x1="981.5499" y1="422.5463" x2="810.0499" y2="422.5463" gradientTransform="matrix(0.1736 0.9848 -0.9848 0.1736 1479.4362 -118.0309)">
			<stop  offset="0" style="stop-color:#FFFFFF"/>
			<stop  offset="0.9663" style="stop-color:#231F20"/>
		</linearGradient>
		<path fill="url(#SVGID_7_)" d="M1597.8961,683.6277l-158.0616,27.8705c0,0-119.7433,141.442-292.8378,171.9632
			c-173.0944,30.5212-333.9923-61.4362-333.9923-61.4362l-2.9545,0.5209c0,0,206.146,137.7966,423.7037,99.4352
			C1451.3114,883.6202,1597.8961,683.6277,1597.8961,683.6277z"/>
		
			<linearGradient id="SVGID_8_" gradientUnits="userSpaceOnUse" x1="735.6938" y1="422.5463" x2="601.7798" y2="422.5463" gradientTransform="matrix(0.1736 0.9848 -0.9848 0.1736 1479.4362 -118.0309)">
			<stop  offset="0" style="stop-color:#FFFFFF"/>
			<stop  offset="1" style="stop-color:#000000"/>
		</linearGradient>
		<path fill="url(#SVGID_8_)" d="M1105.8422,650.0621c173.0944-30.5212,333.9923,61.4362,333.9923,61.4362l158.0616-27.8705
			c0,0-206.146-137.7966-423.7037-99.4353c-217.5577,38.3613-364.1425,238.3538-364.1425,238.3538l2.9545-0.5209
			C813.0044,822.0253,932.7477,680.5833,1105.8422,650.0621z"/>
	</g>
	<g>
		
			<linearGradient id="SVGID_9_" gradientUnits="userSpaceOnUse" x1="981.5499" y1="422.5463" x2="810.0499" y2="422.5463" gradientTransform="matrix(-0.1736 0.9848 -0.9848 -0.1736 1760.7635 167.6365)">
			<stop  offset="0" style="stop-color:#FFFFFF"/>
			<stop  offset="0.9663" style="stop-color:#231F20"/>
		</linearGradient>
		<path fill="url(#SVGID_9_)" d="M1597.8961,961.4648l-158.0616-27.8705c0,0-160.8979,91.9573-333.9923,61.4362
			S813.0044,823.0672,813.0044,823.0672l-2.9545-0.5209c0,0,146.5847,199.9925,364.1425,238.3538
			C1391.7501,1099.2614,1597.8961,961.4648,1597.8961,961.4648z"/>
		
			<linearGradient id="SVGID_10_" gradientUnits="userSpaceOnUse" x1="735.6938" y1="422.5463" x2="601.7798" y2="422.5463" gradientTransform="matrix(-0.1736 0.9848 -0.9848 -0.1736 1760.7635 167.6365)">
			<stop  offset="0" style="stop-color:#FFFFFF"/>
			<stop  offset="1" style="stop-color:#000000"/>
		</linearGradient>
		<path fill="url(#SVGID_10_)" d="M1146.9967,761.631c173.0945,30.5212,292.8378,171.9633,292.8378,171.9633l158.0616,27.8705
			c0,0-146.5847-199.9926-364.1425-238.3538c-217.5577-38.3613-423.7037,99.4352-423.7037,99.4352l2.9545,0.5209
			C813.0044,823.0672,973.9023,731.1098,1146.9967,761.631z"/>
	</g>
	<g>
		
			<linearGradient id="SVGID_11_" gradientUnits="userSpaceOnUse" x1="981.5499" y1="422.5463" x2="810.0499" y2="422.5463" gradientTransform="matrix(-0.5 0.866 -0.866 -0.5 1927.4209 532.2956)">
			<stop  offset="0" style="stop-color:#FFFFFF"/>
			<stop  offset="0.9663" style="stop-color:#231F20"/>
		</linearGradient>
		<path fill="url(#SVGID_11_)" d="M1502.8702,1222.5463l-138.9971-80.25c0,0-182.6459,31.3813-334.8625-56.501
			S812.648,824.0463,812.648,824.0463l-2.5981-1.5c0,0,69.3431,238.0664,260.6602,348.5233
			C1262.0272,1281.5266,1502.8702,1222.5463,1502.8702,1222.5463z"/>
		
			<linearGradient id="SVGID_12_" gradientUnits="userSpaceOnUse" x1="735.6938" y1="422.5463" x2="601.7798" y2="422.5463" gradientTransform="matrix(-0.5 0.866 -0.866 -0.5 1927.4209 532.2956)">
			<stop  offset="0" style="stop-color:#FFFFFF"/>
			<stop  offset="1" style="stop-color:#000000"/>
		</linearGradient>
		<path fill="url(#SVGID_12_)" d="M1147.5106,880.5472c152.2167,87.8823,216.3625,261.749,216.3625,261.749l138.9971,80.25
			c0,0-69.343-238.0664-260.6602-348.5234s-432.1602-51.4766-432.1602-51.4766l2.5981,1.5
			C812.648,824.0463,995.2939,792.6649,1147.5106,880.5472z"/>
	</g>
	<g>
		
			<linearGradient id="SVGID_13_" gradientUnits="userSpaceOnUse" x1="981.5499" y1="422.5463" x2="810.0499" y2="422.5463" gradientTransform="matrix(-0.766 0.6428 -0.6428 -0.766 1959.3068 931.9632)">
			<stop  offset="0" style="stop-color:#FFFFFF"/>
			<stop  offset="0.9663" style="stop-color:#231F20"/>
		</linearGradient>
		<path fill="url(#SVGID_13_)" d="M1324.28,1435.3818l-103.1674-122.9502c0,0-182.3641-32.9797-295.3434-167.6233
			S811.9783,824.8444,811.9783,824.8444l-1.9284-2.2982c0,0-16.2623,247.426,125.7385,416.6559S1324.28,1435.3818,1324.28,1435.3818
			z"/>
		
			<linearGradient id="SVGID_14_" gradientUnits="userSpaceOnUse" x1="735.6938" y1="422.5463" x2="601.7798" y2="422.5463" gradientTransform="matrix(-0.766 0.6428 -0.6428 -0.766 1959.3068 931.9632)">
			<stop  offset="0" style="stop-color:#FFFFFF"/>
			<stop  offset="1" style="stop-color:#000000"/>
		</linearGradient>
		<path fill="url(#SVGID_14_)" d="M1107.3218,992.4677c112.9792,134.6435,113.7909,319.9639,113.7909,319.9639l103.1674,122.9502
			c0,0,16.2623-247.426-125.7384-416.6559S810.0499,822.5463,810.0499,822.5463l1.9284,2.2982
			C811.9783,824.8444,994.3424,857.8242,1107.3218,992.4677z"/>
	</g>
	<g>
		
			<linearGradient id="SVGID_15_" gradientUnits="userSpaceOnUse" x1="981.5499" y1="422.5463" x2="810.0499" y2="422.5463" gradientTransform="matrix(-0.9397 0.342 -0.342 -0.9397 1852.5753 1318.4336)">
			<stop  offset="0" style="stop-color:#FFFFFF"/>
			<stop  offset="0.9663" style="stop-color:#231F20"/>
		</linearGradient>
		<path fill="url(#SVGID_15_)" d="M1083.666,1574.3004l-54.8942-150.8207c0,0-160.0865-93.363-220.2015-258.5278
			c-60.115-165.1647,2.5057-339.5865,2.5057-339.5865l-1.0261-2.8191c0,0-99.9063,226.9423-24.3492,434.5336
			C861.2578,1464.6709,1083.666,1574.3004,1083.666,1574.3004z"/>
		
			<linearGradient id="SVGID_16_" gradientUnits="userSpaceOnUse" x1="735.6938" y1="422.5463" x2="601.7798" y2="422.5463" gradientTransform="matrix(-0.9397 0.342 -0.342 -0.9397 1852.5753 1318.4336)">
			<stop  offset="0" style="stop-color:#FFFFFF"/>
			<stop  offset="1" style="stop-color:#000000"/>
		</linearGradient>
		<path fill="url(#SVGID_16_)" d="M1031.2775,1083.8932c60.1151,165.1647-2.5056,339.5865-2.5056,339.5865l54.8942,150.8207
			c0,0,99.9063-226.9424,24.3492-434.5336S810.0499,822.5463,810.0499,822.5463l1.0261,2.8191
			C811.076,825.3654,971.1624,918.7284,1031.2775,1083.8932z"/>
	</g>
	<g>
		
			<linearGradient id="SVGID_17_" gradientUnits="userSpaceOnUse" x1="981.5499" y1="422.5463" x2="810.0499" y2="422.5463" gradientTransform="matrix(-1 0 0 -1 1620.0999 1645.0925)">
			<stop  offset="0" style="stop-color:#FFFFFF"/>
			<stop  offset="0.9663" style="stop-color:#231F20"/>
		</linearGradient>
		<path fill="url(#SVGID_17_)" d="M810.0499,1622.5463v-160.5c0,0-118.5-142.4854-118.5-318.25s118.5-318.25,118.5-318.25v-3
			c0,0-171.5,179.0861-171.5,400S810.0499,1622.5463,810.0499,1622.5463z"/>
		
			<linearGradient id="SVGID_18_" gradientUnits="userSpaceOnUse" x1="735.6938" y1="422.5463" x2="601.7798" y2="422.5463" gradientTransform="matrix(-1 0 0 -1 1620.0999 1645.0925)">
			<stop  offset="0" style="stop-color:#FFFFFF"/>
			<stop  offset="1" style="stop-color:#000000"/>
		</linearGradient>
		<path fill="url(#SVGID_18_)" d="M928.5499,1143.7963c0,175.7646-118.5,318.25-118.5,318.25v160.5c0,0,171.5-179.0861,171.5-400
			s-171.5-400-171.5-400v3C810.0499,825.5463,928.5499,968.0316,928.5499,1143.7963z"/>
	</g>
	<g>
		
			<linearGradient id="SVGID_19_" gradientUnits="userSpaceOnUse" x1="981.5499" y1="422.5463" x2="810.0499" y2="422.5463" gradientTransform="matrix(-0.9397 -0.342 0.342 -0.9397 1289.9205 1872.5403)">
			<stop  offset="0" style="stop-color:#FFFFFF"/>
			<stop  offset="0.9663" style="stop-color:#231F20"/>
		</linearGradient>
		<path fill="url(#SVGID_19_)" d="M536.4338,1574.3004l54.8942-150.8207c0,0-62.6207-174.4219-2.5057-339.5865
			s220.2015-258.5278,220.2015-258.5278l1.0261-2.8191c0,0-222.4083,109.6294-297.9653,317.2206
			S536.4338,1574.3004,536.4338,1574.3004z"/>
		
			<linearGradient id="SVGID_20_" gradientUnits="userSpaceOnUse" x1="735.6938" y1="422.5463" x2="601.7798" y2="422.5463" gradientTransform="matrix(-0.9397 -0.342 0.342 -0.9397 1289.9205 1872.5403)">
			<stop  offset="0" style="stop-color:#FFFFFF"/>
			<stop  offset="1" style="stop-color:#000000"/>
		</linearGradient>
		<path fill="url(#SVGID_20_)" d="M811.5295,1164.9519c-60.1151,165.1648-220.2015,258.5278-220.2015,258.5278l-54.8942,150.8207
			c0,0,222.4083-109.6295,297.9653-317.2206c75.557-207.5913-24.3492-434.5336-24.3492-434.5336l-1.0261,2.8191
			C809.0239,825.3654,871.6446,999.7872,811.5295,1164.9519z"/>
	</g>
	<g>
		
			<linearGradient id="SVGID_21_" gradientUnits="userSpaceOnUse" x1="981.5499" y1="422.5463" x2="810.0499" y2="422.5463" gradientTransform="matrix(-0.766 -0.6428 0.6428 -0.766 901.8616 1973.3434)">
			<stop  offset="0" style="stop-color:#FFFFFF"/>
			<stop  offset="0.9663" style="stop-color:#231F20"/>
		</linearGradient>
		<path fill="url(#SVGID_21_)" d="M295.8199,1435.3818l103.1674-122.9502c0,0,0.8116-185.3204,113.7909-319.9639
			s295.3434-167.6233,295.3434-167.6233l1.9283-2.2982c0,0-246.4909,26.9498-388.4916,196.1797
			S295.8199,1435.3818,295.8199,1435.3818z"/>
		
			<linearGradient id="SVGID_22_" gradientUnits="userSpaceOnUse" x1="735.6938" y1="422.5463" x2="601.7798" y2="422.5463" gradientTransform="matrix(-0.766 -0.6428 0.6428 -0.766 901.8616 1973.3434)">
			<stop  offset="0" style="stop-color:#FFFFFF"/>
			<stop  offset="1" style="stop-color:#000000"/>
		</linearGradient>
		<path fill="url(#SVGID_22_)" d="M694.3307,1144.8083c-112.9793,134.6436-295.3434,167.6233-295.3434,167.6233l-103.1674,122.9502
			c0,0,246.4909-26.9498,388.4917-196.1797s125.7384-416.6559,125.7384-416.6559l-1.9283,2.2982
			C808.1216,824.8444,807.3101,1010.1649,694.3307,1144.8083z"/>
	</g>
	<g>
		
			<linearGradient id="SVGID_23_" gradientUnits="userSpaceOnUse" x1="981.5499" y1="422.5463" x2="810.0499" y2="422.5463" gradientTransform="matrix(-0.5 -0.866 0.866 -0.5 502.7289 1935.3433)">
			<stop  offset="0" style="stop-color:#FFFFFF"/>
			<stop  offset="0.9663" style="stop-color:#231F20"/>
		</linearGradient>
		<path fill="url(#SVGID_23_)" d="M117.2296,1222.5463l138.9971-80.25c0,0,64.1459-173.8667,216.3626-261.749
			s334.8625-56.501,334.8625-56.501l2.5981-1.5c0,0-240.8431-58.9803-432.1601,51.4766S117.2296,1222.5463,117.2296,1222.5463z"/>
		
			<linearGradient id="SVGID_24_" gradientUnits="userSpaceOnUse" x1="735.6938" y1="422.5463" x2="601.7798" y2="422.5463" gradientTransform="matrix(-0.5 -0.866 0.866 -0.5 502.7289 1935.3433)">
			<stop  offset="0" style="stop-color:#FFFFFF"/>
			<stop  offset="1" style="stop-color:#000000"/>
		</linearGradient>
		<path fill="url(#SVGID_24_)" d="M591.0893,1085.7953c-152.2166,87.8823-334.8626,56.501-334.8626,56.501l-138.9971,80.25
			c0,0,240.8431,58.9803,432.1602-51.4767c191.3171-110.4569,260.6602-348.5233,260.6602-348.5233l-2.5981,1.5
			C807.4518,824.0463,743.3059,997.913,591.0893,1085.7953z"/>
	</g>
	<g>
		
			<linearGradient id="SVGID_25_" gradientUnits="userSpaceOnUse" x1="981.5499" y1="422.5463" x2="810.0499" y2="422.5463" gradientTransform="matrix(-0.1736 -0.9848 0.9848 -0.1736 140.6637 1763.1234)">
			<stop  offset="0" style="stop-color:#FFFFFF"/>
			<stop  offset="0.9663" style="stop-color:#231F20"/>
		</linearGradient>
		<path fill="url(#SVGID_25_)" d="M22.2037,961.4648l158.0616-27.8705c0,0,119.7434-141.4421,292.8378-171.9633
			c173.0944-30.5212,333.9924,61.4362,333.9924,61.4362l2.9544-0.5209c0,0-206.146-137.7966-423.7037-99.4352
			C168.7885,761.4723,22.2037,961.4648,22.2037,961.4648z"/>
		
			<linearGradient id="SVGID_26_" gradientUnits="userSpaceOnUse" x1="735.6938" y1="422.5463" x2="601.7798" y2="422.5463" gradientTransform="matrix(-0.1736 -0.9848 0.9848 -0.1736 140.6637 1763.1234)">
			<stop  offset="0" style="stop-color:#FFFFFF"/>
			<stop  offset="1" style="stop-color:#000000"/>
		</linearGradient>
		<path fill="url(#SVGID_26_)" d="M514.2578,995.0305c-173.0944,30.5212-333.9924-61.4362-333.9924-61.4362L22.2037,961.4648
			c0,0,206.146,137.7965,423.7038,99.4352c217.5578-38.3613,364.1424-238.3538,364.1424-238.3538l-2.9544,0.5209
			C807.0955,823.0672,687.3522,964.5093,514.2578,995.0305z"/>
	</g>
	<g>
		
			<linearGradient id="SVGID_27_" gradientUnits="userSpaceOnUse" x1="981.5499" y1="422.5463" x2="810.0499" y2="422.5463" gradientTransform="matrix(0.1736 -0.9848 0.9848 0.1736 -140.6637 1477.4561)">
			<stop  offset="0" style="stop-color:#FFFFFF"/>
			<stop  offset="0.9663" style="stop-color:#231F20"/>
		</linearGradient>
		<path fill="url(#SVGID_27_)" d="M22.2037,683.6277l158.0616,27.8705c0,0,160.898-91.9574,333.9924-61.4362
			c173.0944,30.5212,292.8378,171.9633,292.8378,171.9633l2.9544,0.5209c0,0-146.5847-199.9925-364.1424-238.3538
			C228.3498,545.8312,22.2037,683.6277,22.2037,683.6277z"/>
		
			<linearGradient id="SVGID_28_" gradientUnits="userSpaceOnUse" x1="735.6938" y1="422.5463" x2="601.7798" y2="422.5463" gradientTransform="matrix(0.1736 -0.9848 0.9848 0.1736 -140.6637 1477.4561)">
			<stop  offset="0" style="stop-color:#FFFFFF"/>
			<stop  offset="1" style="stop-color:#000000"/>
		</linearGradient>
		<path fill="url(#SVGID_28_)" d="M473.1031,883.4615c-173.0944-30.5212-292.8378-171.9632-292.8378-171.9632L22.2037,683.6277
			c0,0,146.5847,199.9925,364.1425,238.3538c217.5577,38.3613,423.7037-99.4352,423.7037-99.4352l-2.9544-0.5209
			C807.0955,822.0253,646.1975,913.9827,473.1031,883.4615z"/>
	</g>
	<g>
		
			<linearGradient id="SVGID_29_" gradientUnits="userSpaceOnUse" x1="981.5499" y1="422.5463" x2="810.0499" y2="422.5463" gradientTransform="matrix(0.5 -0.866 0.866 0.5 -307.321 1112.797)">
			<stop  offset="0" style="stop-color:#FFFFFF"/>
			<stop  offset="0.9663" style="stop-color:#231F20"/>
		</linearGradient>
		<path fill="url(#SVGID_29_)" d="M117.2296,422.5463l138.9971,80.25c0,0,182.6459-31.3813,334.8626,56.501
			s216.3625,261.749,216.3625,261.749l2.5981,1.5c0,0-69.3431-238.0664-260.6602-348.5233S117.2296,422.5463,117.2296,422.5463z"/>
		
			<linearGradient id="SVGID_30_" gradientUnits="userSpaceOnUse" x1="735.6938" y1="422.5463" x2="601.7798" y2="422.5463" gradientTransform="matrix(0.5 -0.866 0.866 0.5 -307.321 1112.797)">
			<stop  offset="0" style="stop-color:#FFFFFF"/>
			<stop  offset="1" style="stop-color:#000000"/>
		</linearGradient>
		<path fill="url(#SVGID_30_)" d="M472.5893,764.5453c-152.2166-87.8823-216.3626-261.749-216.3626-261.749l-138.9971-80.25
			c0,0,69.3431,238.0664,260.6602,348.5234s432.1601,51.4766,432.1601,51.4766l-2.5981-1.5
			C807.4518,821.0463,624.8059,852.4276,472.5893,764.5453z"/>
	</g>
	<g>
		
			<linearGradient id="SVGID_31_" gradientUnits="userSpaceOnUse" x1="981.5499" y1="422.5463" x2="810.0499" y2="422.5463" gradientTransform="matrix(0.766 -0.6428 0.6428 0.766 -339.2069 713.1293)">
			<stop  offset="0" style="stop-color:#FFFFFF"/>
			<stop  offset="0.9663" style="stop-color:#231F20"/>
		</linearGradient>
		<path fill="url(#SVGID_31_)" d="M295.8199,209.7107l103.1674,122.9501c0,0,182.3641,32.9798,295.3434,167.6233
			s113.7909,319.964,113.7909,319.964l1.9283,2.2981c0,0,16.2623-247.426-125.7384-416.6559S295.8199,209.7107,295.8199,209.7107z"
			/>
		
			<linearGradient id="SVGID_32_" gradientUnits="userSpaceOnUse" x1="735.6938" y1="422.5463" x2="601.7798" y2="422.5463" gradientTransform="matrix(0.766 -0.6428 0.6428 0.766 -339.2069 713.1293)">
			<stop  offset="0" style="stop-color:#FFFFFF"/>
			<stop  offset="1" style="stop-color:#000000"/>
		</linearGradient>
		<path fill="url(#SVGID_32_)" d="M512.7781,652.6248c-112.9793-134.6435-113.7909-319.964-113.7909-319.964L295.8199,209.7107
			c0,0-16.2623,247.426,125.7384,416.6559s388.4916,196.1797,388.4916,196.1797l-1.9283-2.2981
			C808.1216,820.2482,625.7575,787.2684,512.7781,652.6248z"/>
	</g>
	<g>
		
			<linearGradient id="SVGID_33_" gradientUnits="userSpaceOnUse" x1="981.5499" y1="422.5463" x2="810.0499" y2="422.5463" gradientTransform="matrix(0.9397 -0.342 0.342 0.9397 -232.4754 326.659)">
			<stop  offset="0" style="stop-color:#FFFFFF"/>
			<stop  offset="0.9663" style="stop-color:#231F20"/>
		</linearGradient>
		<path fill="url(#SVGID_33_)" d="M536.4338,70.7922l54.8942,150.8207c0,0,160.0864,93.3631,220.2015,258.5278
			s-2.5057,339.5865-2.5057,339.5865l1.0261,2.8191c0,0,99.9063-226.9423,24.3492-434.5335S536.4338,70.7922,536.4338,70.7922z"/>
		
			<linearGradient id="SVGID_34_" gradientUnits="userSpaceOnUse" x1="735.6938" y1="422.5463" x2="601.7798" y2="422.5463" gradientTransform="matrix(0.9397 -0.342 0.342 0.9397 -232.4754 326.659)">
			<stop  offset="0" style="stop-color:#FFFFFF"/>
			<stop  offset="1" style="stop-color:#000000"/>
		</linearGradient>
		<path fill="url(#SVGID_34_)" d="M588.8224,561.1994c-60.1151-165.1647,2.5057-339.5865,2.5057-339.5865L536.4338,70.7922
			c0,0-99.9063,226.9423-24.3492,434.5335s297.9653,317.2206,297.9653,317.2206l-1.0261-2.8191
			C809.0239,819.7272,648.9374,726.3641,588.8224,561.1994z"/>
	</g>
	<g>
		<linearGradient id="SVGID_35_" gradientUnits="userSpaceOnUse" x1="981.5499" y1="422.5463" x2="810.0499" y2="422.5463">
			<stop  offset="0" style="stop-color:#FFFFFF"/>
			<stop  offset="0.9663" style="stop-color:#231F20"/>
		</linearGradient>
		<path fill="url(#SVGID_35_)" d="M810.0499,22.5463v160.5c0,0,118.5,142.4853,118.5,318.25s-118.5,318.25-118.5,318.25v3
			c0,0,171.5-179.0861,171.5-400S810.0499,22.5463,810.0499,22.5463z"/>
		<linearGradient id="SVGID_36_" gradientUnits="userSpaceOnUse" x1="735.6938" y1="422.5463" x2="601.7798" y2="422.5463">
			<stop  offset="0" style="stop-color:#FFFFFF"/>
			<stop  offset="1" style="stop-color:#000000"/>
		</linearGradient>
		<path fill="url(#SVGID_36_)" d="M691.5499,501.2963c0-175.7646,118.5-318.25,118.5-318.25v-160.5c0,0-171.5,179.0861-171.5,400
			s171.5,400,171.5,400v-3C810.0499,819.5463,691.5499,677.0609,691.5499,501.2963z"/>
	</g>
</g>
</svg>
